<svg xmlns="http://www.w3.org/2000/svg" xmlns:xlink="http://www.w3.org/1999/xlink" width="2000" zoomAndPan="magnify" viewBox="0 0 1500 374.999991" height="500" preserveAspectRatio="xMidYMid meet" version="1.0"><defs><g/><clipPath id="32d57fe66d"><path d="M 0 156.253906 L 57.273438 156.253906 L 57.273438 213.527344 L 0 213.527344 Z M 0 156.253906 " clip-rule="nonzero"/></clipPath><clipPath id="e7565cf060"><path d="M 28.636719 156.253906 C 12.820312 156.253906 0 169.074219 0 184.890625 C 0 200.707031 12.820312 213.527344 28.636719 213.527344 C 44.449219 213.527344 57.273438 200.707031 57.273438 184.890625 C 57.273438 169.074219 44.449219 156.253906 28.636719 156.253906 Z M 28.636719 156.253906 " clip-rule="nonzero"/></clipPath><clipPath id="61ceaa1e28"><path d="M 118.585938 156.253906 L 175.859375 156.253906 L 175.859375 213.527344 L 118.585938 213.527344 Z M 118.585938 156.253906 " clip-rule="nonzero"/></clipPath><clipPath id="ebaa6d393e"><path d="M 147.222656 156.253906 C 131.40625 156.253906 118.585938 169.074219 118.585938 184.890625 C 118.585938 200.707031 131.40625 213.527344 147.222656 213.527344 C 163.039062 213.527344 175.859375 200.707031 175.859375 184.890625 C 175.859375 169.074219 163.039062 156.253906 147.222656 156.253906 Z M 147.222656 156.253906 " clip-rule="nonzero"/></clipPath><clipPath id="d49e872626"><path d="M 61.15625 55.097656 L 118.429688 55.097656 L 118.429688 112.371094 L 61.15625 112.371094 Z M 61.15625 55.097656 " clip-rule="nonzero"/></clipPath><clipPath id="137f463cc0"><path d="M 89.792969 55.097656 C 73.976562 55.097656 61.15625 67.917969 61.15625 83.734375 C 61.15625 99.550781 73.976562 112.371094 89.792969 112.371094 C 105.605469 112.371094 118.429688 99.550781 118.429688 83.734375 C 118.429688 67.917969 105.605469 55.097656 89.792969 55.097656 Z M 89.792969 55.097656 " clip-rule="nonzero"/></clipPath><clipPath id="a4ef2ab266"><path d="M 61.15625 262.628906 L 118.429688 262.628906 L 118.429688 319.902344 L 61.15625 319.902344 Z M 61.15625 262.628906 " clip-rule="nonzero"/></clipPath><clipPath id="b452cbf059"><path d="M 89.792969 262.628906 C 73.976562 262.628906 61.15625 275.449219 61.15625 291.265625 C 61.15625 307.082031 73.976562 319.902344 89.792969 319.902344 C 105.605469 319.902344 118.429688 307.082031 118.429688 291.265625 C 118.429688 275.449219 105.605469 262.628906 89.792969 262.628906 Z M 89.792969 262.628906 " clip-rule="nonzero"/></clipPath><clipPath id="7e9932a6da"><path d="M 172.691406 262.628906 L 229.964844 262.628906 L 229.964844 319.902344 L 172.691406 319.902344 Z M 172.691406 262.628906 " clip-rule="nonzero"/></clipPath><clipPath id="5675ab5df5"><path d="M 201.328125 262.628906 C 185.515625 262.628906 172.691406 275.449219 172.691406 291.265625 C 172.691406 307.082031 185.515625 319.902344 201.328125 319.902344 C 217.144531 319.902344 229.964844 307.082031 229.964844 291.265625 C 229.964844 275.449219 217.144531 262.628906 201.328125 262.628906 Z M 201.328125 262.628906 " clip-rule="nonzero"/></clipPath></defs><g fill="#5b6b89" fill-opacity="1"><g transform="translate(249.464123, 241.674089)"><g><path d="M 12.8125 0 L 12.8125 -110.84375 L 39.484375 -110.84375 L 39.484375 -67.046875 L 39.921875 -67.046875 L 71.359375 -110.84375 L 100.5625 -110.84375 L 67.046875 -66.453125 L 106.828125 0 L 77.625 0 L 51.546875 -45.4375 L 39.484375 -29.046875 L 39.484375 0 Z M 12.8125 0 "/></g></g></g><g fill="#5b6b89" fill-opacity="1"><g transform="translate(354.941002, 241.674089)"><g><path d="M 12.8125 0 L 12.8125 -83.140625 C 12.8125 -94.253906 12.414062 -103.488281 11.625 -110.84375 C 11.625 -111.4375 12.019531 -111.734375 12.8125 -111.734375 C 17.582031 -111.140625 24.039062 -110.84375 32.1875 -110.84375 L 51.703125 -110.84375 C 65.203125 -110.84375 75.679688 -108.257812 83.140625 -103.09375 C 91.878906 -97.039062 96.25 -87.609375 96.25 -74.796875 C 96.25 -62.273438 91.878906 -52.640625 83.140625 -45.890625 C 75.285156 -39.828125 65.050781 -36.796875 52.4375 -36.796875 L 39.484375 -36.796875 L 39.484375 0 Z M 39.484375 -57.8125 L 51.109375 -57.8125 C 63.921875 -57.8125 70.328125 -63.472656 70.328125 -74.796875 C 70.328125 -80.148438 68.585938 -84.070312 65.109375 -86.5625 C 61.929688 -88.75 57.015625 -89.84375 50.359375 -89.84375 L 39.484375 -89.84375 Z M 39.484375 -57.8125 "/></g></g></g><g fill="#5b6b89" fill-opacity="1"><g transform="translate(457.289348, 241.674089)"><g><path d="M 12.8125 0 L 12.8125 -110.84375 L 39.484375 -110.84375 L 39.484375 0 Z M 12.8125 0 "/></g></g></g><g fill="#5b6b89" fill-opacity="1"><g transform="translate(509.431871, 241.674089)"><g/></g></g><g fill="#5b6b89" fill-opacity="1"><g transform="translate(543.547995, 241.674089)"><g><path d="M 34.265625 0 L 34.265625 -88.796875 L 19.21875 -88.796875 C 15.84375 -88.796875 10.878906 -88.597656 4.328125 -88.203125 C 4.023438 -88.492188 3.875 -92.414062 3.875 -99.96875 C 3.875 -107.519531 4.023438 -111.738281 4.328125 -112.625 C 15.046875 -111.4375 29.492188 -110.84375 47.671875 -110.84375 L 69.421875 -110.84375 C 76.671875 -110.84375 83.875 -111.140625 91.03125 -111.734375 C 91.320312 -111.335938 91.46875 -107.390625 91.46875 -99.890625 C 91.46875 -92.390625 91.320312 -88.441406 91.03125 -88.046875 C 86.851562 -88.546875 81.835938 -88.796875 75.984375 -88.796875 L 60.9375 -88.796875 L 60.9375 0 Z M 34.265625 0 "/></g></g></g><g fill="#5b6b89" fill-opacity="1"><g transform="translate(638.894335, 241.674089)"><g><path d="M 12.8125 0 L 12.8125 -83.140625 C 12.8125 -94.253906 12.414062 -103.488281 11.625 -110.84375 C 11.625 -111.4375 12.019531 -111.734375 12.8125 -111.734375 C 17.875 -111.140625 24.628906 -110.84375 33.078125 -110.84375 L 53.484375 -110.84375 C 82.390625 -110.84375 96.84375 -99.222656 96.84375 -75.984375 C 96.84375 -60.585938 90.484375 -49.910156 77.765625 -43.953125 L 102.5 0 L 72.703125 0 L 52.296875 -39.03125 L 39.484375 -39.03125 L 39.484375 0 Z M 39.484375 -60.046875 L 51.40625 -60.046875 C 64.3125 -60.046875 70.765625 -65.359375 70.765625 -75.984375 C 70.765625 -81.046875 69.125 -84.671875 65.84375 -86.859375 C 62.769531 -88.847656 57.957031 -89.84375 51.40625 -89.84375 L 39.484375 -89.84375 Z M 39.484375 -60.046875 "/></g></g></g><g fill="#5b6b89" fill-opacity="1"><g transform="translate(744.371214, 241.674089)"><g><path d="M 84.765625 1.484375 C 74.835938 0.492188 62.867188 0 48.859375 0 L 30.84375 0 C 23.789062 0 17.78125 0.25 12.8125 0.75 C 12.019531 0.75 11.625 0.5 11.625 0 C 12.519531 -3.769531 12.914062 -11.367188 12.8125 -22.796875 C 12.8125 -24.984375 12.8125 -26.625 12.8125 -27.71875 L 12.8125 -83.140625 C 12.8125 -94.253906 12.414062 -103.488281 11.625 -110.84375 C 11.625 -111.34375 12.019531 -111.59375 12.8125 -111.59375 C 17.582031 -111.09375 23.441406 -110.84375 30.390625 -110.84375 L 47.96875 -110.84375 C 58.5 -110.84375 70.222656 -111.335938 83.140625 -112.328125 C 83.429688 -111.640625 83.578125 -107.519531 83.578125 -99.96875 C 83.578125 -92.414062 83.429688 -88.394531 83.140625 -87.90625 C 77.773438 -88.5 70.519531 -88.796875 61.375 -88.796875 L 39.484375 -88.796875 L 39.484375 -68.234375 L 58.109375 -68.234375 C 63.671875 -68.234375 69.828125 -68.484375 76.578125 -68.984375 C 76.878906 -68.585938 77.03125 -64.613281 77.03125 -57.0625 C 77.03125 -49.507812 76.878906 -45.535156 76.578125 -45.140625 C 71.410156 -45.640625 65.253906 -45.890625 58.109375 -45.890625 L 39.484375 -45.890625 L 39.484375 -22.34375 L 62.125 -22.34375 C 68.582031 -22.34375 76.128906 -22.691406 84.765625 -23.390625 C 85.066406 -22.890625 85.21875 -18.789062 85.21875 -11.09375 C 85.21875 -3.394531 85.066406 0.796875 84.765625 1.484375 Z M 84.765625 1.484375 "/></g></g></g><g fill="#5b6b89" fill-opacity="1"><g transform="translate(838.22777, 241.674089)"><g><path d="M 84.765625 1.484375 C 74.835938 0.492188 62.867188 0 48.859375 0 L 30.84375 0 C 23.789062 0 17.78125 0.25 12.8125 0.75 C 12.019531 0.75 11.625 0.5 11.625 0 C 12.519531 -3.769531 12.914062 -11.367188 12.8125 -22.796875 C 12.8125 -24.984375 12.8125 -26.625 12.8125 -27.71875 L 12.8125 -83.140625 C 12.8125 -94.253906 12.414062 -103.488281 11.625 -110.84375 C 11.625 -111.34375 12.019531 -111.59375 12.8125 -111.59375 C 17.582031 -111.09375 23.441406 -110.84375 30.390625 -110.84375 L 47.96875 -110.84375 C 58.5 -110.84375 70.222656 -111.335938 83.140625 -112.328125 C 83.429688 -111.640625 83.578125 -107.519531 83.578125 -99.96875 C 83.578125 -92.414062 83.429688 -88.394531 83.140625 -87.90625 C 77.773438 -88.5 70.519531 -88.796875 61.375 -88.796875 L 39.484375 -88.796875 L 39.484375 -68.234375 L 58.109375 -68.234375 C 63.671875 -68.234375 69.828125 -68.484375 76.578125 -68.984375 C 76.878906 -68.585938 77.03125 -64.613281 77.03125 -57.0625 C 77.03125 -49.507812 76.878906 -45.535156 76.578125 -45.140625 C 71.410156 -45.640625 65.253906 -45.890625 58.109375 -45.890625 L 39.484375 -45.890625 L 39.484375 -22.34375 L 62.125 -22.34375 C 68.582031 -22.34375 76.128906 -22.691406 84.765625 -23.390625 C 85.066406 -22.890625 85.21875 -18.789062 85.21875 -11.09375 C 85.21875 -3.394531 85.066406 0.796875 84.765625 1.484375 Z M 84.765625 1.484375 "/></g></g></g><g fill="#5b6b89" fill-opacity="1"><g transform="translate(932.084327, 241.674089)"><g/></g></g><g fill="#5b6b89" fill-opacity="1"><g transform="translate(966.200427, 241.674089)"><g><path d="M 24.578125 0.75 C 16.429688 0.75 11.914062 0.5 11.03125 0 C 12.21875 -11.21875 12.8125 -26.117188 12.8125 -44.703125 L 12.8125 -110.84375 L 41.5625 -110.84375 L 59.140625 -63.015625 C 60.140625 -60.234375 61.484375 -55.914062 63.171875 -50.0625 C 64.066406 -46.78125 64.757812 -44.347656 65.25 -42.765625 L 66 -42.765625 C 66.789062 -45.046875 67.832031 -48.570312 69.125 -53.34375 C 70.414062 -57.707031 71.410156 -60.929688 72.109375 -63.015625 L 89.09375 -110.84375 L 118 -110.84375 L 118 -27.71875 C 118 -16.59375 118.394531 -7.351562 119.1875 0 C 118.59375 0.5 114.171875 0.75 105.921875 0.75 C 97.679688 0.75 93.3125 0.5 92.8125 0 C 93.414062 -4.664062 93.71875 -10.972656 93.71875 -18.921875 L 93.71875 -37.984375 C 93.71875 -45.140625 94.804688 -57.609375 96.984375 -75.390625 C 97.085938 -75.878906 97.140625 -76.222656 97.140625 -76.421875 L 96.546875 -76.421875 L 87.3125 -49.90625 L 72.40625 -9.390625 L 57.8125 -9.390625 L 42.765625 -49.90625 L 33.8125 -76.421875 L 33.21875 -76.421875 C 33.21875 -76.222656 33.269531 -75.878906 33.375 -75.390625 C 35.5625 -57.609375 36.65625 -45.140625 36.65625 -37.984375 L 36.65625 -18.921875 C 36.65625 -10.972656 36.953125 -4.664062 37.546875 0 C 37.148438 0.5 32.828125 0.75 24.578125 0.75 Z M 24.578125 0.75 "/></g></g></g><g fill="#5b6b89" fill-opacity="1"><g transform="translate(1096.854675, 241.674089)"><g><path d="M -1.1875 0 L 33.21875 -110.84375 L 65.109375 -110.84375 L 82.234375 -55.421875 L 99.515625 0 L 71.515625 0 L 65.109375 -25.46875 L 32.328125 -25.46875 L 25.921875 0 Z M 37.390625 -46.03125 L 60.046875 -46.03125 L 57.65625 -55.421875 C 56.5625 -59.296875 55.019531 -65.550781 53.03125 -74.1875 C 51.144531 -81.84375 49.753906 -87.457031 48.859375 -91.03125 L 48.265625 -91.03125 C 47.972656 -89.832031 47.578125 -87.992188 47.078125 -85.515625 C 45.785156 -79.953125 44.789062 -75.78125 44.09375 -73 C 43.800781 -71.707031 43.359375 -69.867188 42.765625 -67.484375 C 41.472656 -62.023438 40.476562 -58.003906 39.78125 -55.421875 Z M 37.390625 -46.03125 "/></g></g></g><g fill="#5b6b89" fill-opacity="1"><g transform="translate(1195.180633, 241.674089)"><g><path d="M 12.8125 0 L 12.8125 -110.84375 L 39.484375 -110.84375 L 39.484375 -67.046875 L 39.921875 -67.046875 L 71.359375 -110.84375 L 100.5625 -110.84375 L 67.046875 -66.453125 L 106.828125 0 L 77.625 0 L 51.546875 -45.4375 L 39.484375 -29.046875 L 39.484375 0 Z M 12.8125 0 "/></g></g></g><g fill="#5b6b89" fill-opacity="1"><g transform="translate(1300.657536, 241.674089)"><g><path d="M 84.765625 1.484375 C 74.835938 0.492188 62.867188 0 48.859375 0 L 30.84375 0 C 23.789062 0 17.78125 0.25 12.8125 0.75 C 12.019531 0.75 11.625 0.5 11.625 0 C 12.519531 -3.769531 12.914062 -11.367188 12.8125 -22.796875 C 12.8125 -24.984375 12.8125 -26.625 12.8125 -27.71875 L 12.8125 -83.140625 C 12.8125 -94.253906 12.414062 -103.488281 11.625 -110.84375 C 11.625 -111.34375 12.019531 -111.59375 12.8125 -111.59375 C 17.582031 -111.09375 23.441406 -110.84375 30.390625 -110.84375 L 47.96875 -110.84375 C 58.5 -110.84375 70.222656 -111.335938 83.140625 -112.328125 C 83.429688 -111.640625 83.578125 -107.519531 83.578125 -99.96875 C 83.578125 -92.414062 83.429688 -88.394531 83.140625 -87.90625 C 77.773438 -88.5 70.519531 -88.796875 61.375 -88.796875 L 39.484375 -88.796875 L 39.484375 -68.234375 L 58.109375 -68.234375 C 63.671875 -68.234375 69.828125 -68.484375 76.578125 -68.984375 C 76.878906 -68.585938 77.03125 -64.613281 77.03125 -57.0625 C 77.03125 -49.507812 76.878906 -45.535156 76.578125 -45.140625 C 71.410156 -45.640625 65.253906 -45.890625 58.109375 -45.890625 L 39.484375 -45.890625 L 39.484375 -22.34375 L 62.125 -22.34375 C 68.582031 -22.34375 76.128906 -22.691406 84.765625 -23.390625 C 85.066406 -22.890625 85.21875 -18.789062 85.21875 -11.09375 C 85.21875 -3.394531 85.066406 0.796875 84.765625 1.484375 Z M 84.765625 1.484375 "/></g></g></g><g fill="#5b6b89" fill-opacity="1"><g transform="translate(1394.51414, 241.674089)"><g><path d="M 12.8125 0 L 12.8125 -83.140625 C 12.8125 -94.253906 12.414062 -103.488281 11.625 -110.84375 C 11.625 -111.4375 12.019531 -111.734375 12.8125 -111.734375 C 17.875 -111.140625 24.628906 -110.84375 33.078125 -110.84375 L 53.484375 -110.84375 C 82.390625 -110.84375 96.84375 -99.222656 96.84375 -75.984375 C 96.84375 -60.585938 90.484375 -49.910156 77.765625 -43.953125 L 102.5 0 L 72.703125 0 L 52.296875 -39.03125 L 39.484375 -39.03125 L 39.484375 0 Z M 39.484375 -60.046875 L 51.40625 -60.046875 C 64.3125 -60.046875 70.765625 -65.359375 70.765625 -75.984375 C 70.765625 -81.046875 69.125 -84.671875 65.84375 -86.859375 C 62.769531 -88.847656 57.957031 -89.84375 51.40625 -89.84375 L 39.484375 -89.84375 Z M 39.484375 -60.046875 "/></g></g></g><path stroke-linecap="butt" transform="matrix(0.689586, -1.140628, 1.140628, 0.689586, 40.027834, 158.307352)" fill="none" stroke-linejoin="miter" d="M 0.000518438 2.999248 L 67.19925 2.999727 " stroke="#5b6b89" stroke-width="6" stroke-opacity="1" stroke-miterlimit="4"/><path stroke-linecap="butt" transform="matrix(0.63322, -1.172857, 1.172857, 0.63322, 99.879664, 264.162523)" fill="none" stroke-linejoin="miter" d="M -0.00013776 3.000246 L 47.720399 3.001232 " stroke="#5b6b89" stroke-width="6" stroke-opacity="1" stroke-miterlimit="4"/><path stroke-linecap="butt" transform="matrix(-0.604271, -1.188031, 1.188031, -0.604271, 184.765847, 267.540921)" fill="none" stroke-linejoin="miter" d="M 0.00165015 2.999312 L 46.562076 3.001259 " stroke="#5b6b89" stroke-width="6" stroke-opacity="1" stroke-miterlimit="4"/><path stroke-linecap="butt" transform="matrix(-0.646847, -1.165397, 1.165397, -0.646847, 129.973457, 164.383408)" fill="none" stroke-linejoin="miter" d="M 0.00128485 2.999943 L 67.545088 2.999169 " stroke="#5b6b89" stroke-width="6" stroke-opacity="1" stroke-miterlimit="4"/><g clip-path="url(#32d57fe66d)"><g clip-path="url(#e7565cf060)"><path fill="#5b6b89" d="M 0 156.253906 L 57.273438 156.253906 L 57.273438 213.527344 L 0 213.527344 Z M 0 156.253906 " fill-opacity="1" fill-rule="nonzero"/></g></g><g clip-path="url(#61ceaa1e28)"><g clip-path="url(#ebaa6d393e)"><path fill="#5b6b89" d="M 118.585938 156.253906 L 175.859375 156.253906 L 175.859375 213.527344 L 118.585938 213.527344 Z M 118.585938 156.253906 " fill-opacity="1" fill-rule="nonzero"/></g></g><g clip-path="url(#d49e872626)"><g clip-path="url(#137f463cc0)"><path fill="#5b6b89" d="M 61.15625 55.097656 L 118.429688 55.097656 L 118.429688 112.371094 L 61.15625 112.371094 Z M 61.15625 55.097656 " fill-opacity="1" fill-rule="nonzero"/></g></g><g clip-path="url(#a4ef2ab266)"><g clip-path="url(#b452cbf059)"><path fill="#5b6b89" d="M 61.15625 262.628906 L 118.429688 262.628906 L 118.429688 319.902344 L 61.15625 319.902344 Z M 61.15625 262.628906 " fill-opacity="1" fill-rule="nonzero"/></g></g><g clip-path="url(#7e9932a6da)"><g clip-path="url(#5675ab5df5)"><path fill="#5b6b89" d="M 172.691406 262.628906 L 229.964844 262.628906 L 229.964844 319.902344 L 172.691406 319.902344 Z M 172.691406 262.628906 " fill-opacity="1" fill-rule="nonzero"/></g></g></svg>