<svg xmlns="http://www.w3.org/2000/svg" xmlns:xlink="http://www.w3.org/1999/xlink" width="500" zoomAndPan="magnify" viewBox="0 0 375 374.999991" height="500" preserveAspectRatio="xMidYMid meet" version="1.0"><defs><clipPath id="66c8b40df9"><path d="M 0 16.535156 L 357 16.535156 L 357 271 L 0 271 Z M 0 16.535156 " clip-rule="nonzero"/></clipPath><clipPath id="2442b075f7"><path d="M 46 160 L 375 160 L 375 358.535156 L 46 358.535156 Z M 46 160 " clip-rule="nonzero"/></clipPath></defs><path fill="#3f3d56" d="M 9.011719 139.523438 L 323.132812 47.980469 L 331.453125 76.542969 L 17.332031 168.085938 Z M 9.011719 139.523438 " fill-opacity="1" fill-rule="nonzero"/><g clip-path="url(#66c8b40df9)"><path fill="#3f3d56" d="M 46.542969 270.71875 L 0.242188 111.78125 C 0.160156 111.488281 0.101562 111.191406 0.078125 110.886719 C 0.0507812 110.585938 0.0546875 110.28125 0.0859375 109.980469 C 0.121094 109.679688 0.183594 109.382812 0.273438 109.09375 C 0.363281 108.804688 0.484375 108.523438 0.628906 108.257812 C 0.777344 107.992188 0.945312 107.742188 1.140625 107.511719 C 1.335938 107.277344 1.554688 107.066406 1.789062 106.875 C 2.027344 106.6875 2.28125 106.519531 2.550781 106.378906 C 2.820312 106.238281 3.101562 106.128906 3.390625 106.042969 L 309.898438 16.71875 C 310.191406 16.636719 310.488281 16.582031 310.789062 16.554688 C 311.09375 16.527344 311.394531 16.53125 311.695312 16.5625 C 312 16.597656 312.292969 16.660156 312.585938 16.75 C 312.875 16.84375 313.152344 16.960938 313.417969 17.109375 C 313.683594 17.253906 313.933594 17.425781 314.167969 17.621094 C 314.398438 17.816406 314.609375 18.03125 314.800781 18.269531 C 314.992188 18.503906 315.15625 18.757812 315.296875 19.027344 C 315.4375 19.296875 315.550781 19.578125 315.636719 19.867188 L 356.652344 160.679688 L 355.382812 161.046875 L 314.367188 20.238281 C 314.242188 19.816406 314.042969 19.4375 313.769531 19.097656 C 313.496094 18.753906 313.164062 18.476562 312.78125 18.265625 C 312.398438 18.054688 311.988281 17.925781 311.550781 17.878906 C 311.117188 17.832031 310.6875 17.867188 310.269531 17.988281 L 3.761719 107.3125 C 3.339844 107.433594 2.960938 107.632812 2.617188 107.90625 C 2.277344 108.179688 2 108.511719 1.789062 108.894531 C 1.578125 109.277344 1.449219 109.6875 1.402344 110.125 C 1.351562 110.5625 1.390625 110.988281 1.511719 111.410156 L 47.8125 270.351562 Z M 46.542969 270.71875 " fill-opacity="1" fill-rule="nonzero"/></g><path fill="#66cc89" d="M 288.8125 161.332031 C 288.347656 161.332031 287.894531 161.257812 287.453125 161.109375 C 287.011719 160.964844 286.605469 160.75 286.234375 160.472656 C 285.863281 160.191406 285.542969 159.863281 285.277344 159.480469 C 285.015625 159.097656 284.816406 158.683594 284.6875 158.238281 L 276.921875 131.578125 C 276.839844 131.308594 276.789062 131.03125 276.765625 130.75 C 276.742188 130.46875 276.746094 130.1875 276.777344 129.910156 C 276.808594 129.628906 276.863281 129.351562 276.949219 129.085938 C 277.035156 128.816406 277.144531 128.558594 277.28125 128.308594 C 277.417969 128.0625 277.574219 127.832031 277.753906 127.613281 C 277.9375 127.398438 278.136719 127.203125 278.355469 127.027344 C 278.578125 126.847656 278.8125 126.695312 279.0625 126.566406 C 279.3125 126.433594 279.574219 126.328125 279.84375 126.25 L 306.496094 118.484375 C 306.765625 118.40625 307.042969 118.351562 307.324219 118.328125 C 307.605469 118.304688 307.886719 118.308594 308.164062 118.339844 C 308.445312 118.371094 308.722656 118.429688 308.988281 118.511719 C 309.257812 118.597656 309.515625 118.707031 309.765625 118.84375 C 310.011719 118.980469 310.242188 119.136719 310.457031 119.320312 C 310.675781 119.5 310.871094 119.703125 311.046875 119.921875 C 311.222656 120.140625 311.378906 120.375 311.507812 120.625 C 311.640625 120.875 311.742188 121.136719 311.824219 121.40625 L 319.589844 148.066406 C 319.667969 148.335938 319.71875 148.613281 319.742188 148.894531 C 319.765625 149.175781 319.761719 149.457031 319.734375 149.734375 C 319.703125 150.015625 319.644531 150.289062 319.558594 150.558594 C 319.472656 150.828125 319.363281 151.085938 319.226562 151.335938 C 319.09375 151.582031 318.933594 151.8125 318.753906 152.027344 C 318.570312 152.246094 318.371094 152.441406 318.152344 152.617188 C 317.929688 152.796875 317.695312 152.949219 317.445312 153.078125 C 317.195312 153.210938 316.9375 153.3125 316.664062 153.394531 L 290.011719 161.160156 C 289.621094 161.273438 289.222656 161.332031 288.8125 161.332031 Z M 288.8125 161.332031 " fill-opacity="1" fill-rule="nonzero"/><path fill="#66cc89" d="M 45.828125 112.269531 C 45.746094 111.996094 45.652344 111.726562 45.542969 111.464844 C 45.359375 111.015625 45.132812 110.589844 44.871094 110.179688 C 44.609375 109.773438 44.308594 109.394531 43.976562 109.039062 C 43.644531 108.6875 43.28125 108.367188 42.890625 108.082031 C 42.5 107.796875 42.085938 107.546875 41.648438 107.335938 C 41.210938 107.128906 40.757812 106.957031 40.289062 106.832031 C 39.820312 106.703125 39.347656 106.621094 38.863281 106.582031 C 38.378906 106.539062 37.898438 106.546875 37.414062 106.59375 C 36.933594 106.640625 36.457031 106.734375 35.992188 106.871094 C 35.527344 107.003906 35.078125 107.183594 34.644531 107.402344 C 34.210938 107.617188 33.800781 107.875 33.414062 108.167969 C 33.027344 108.460938 32.671875 108.785156 32.34375 109.144531 C 32.019531 109.503906 31.726562 109.890625 31.472656 110.300781 C 31.214844 110.714844 31 111.144531 30.824219 111.597656 C 30.644531 112.046875 30.511719 112.511719 30.421875 112.988281 C 30.328125 113.464844 30.28125 113.945312 30.277344 114.429688 C 30.273438 114.914062 30.316406 115.398438 30.398438 115.875 C 30.449219 116.15625 30.511719 116.433594 30.59375 116.707031 C 30.832031 117.53125 31.199219 118.296875 31.6875 119 C 32.175781 119.707031 32.765625 120.316406 33.453125 120.832031 C 34.140625 121.347656 34.890625 121.742188 35.703125 122.011719 C 36.519531 122.285156 37.355469 122.417969 38.210938 122.417969 C 38.964844 122.421875 39.703125 122.316406 40.425781 122.101562 C 40.925781 121.957031 41.40625 121.761719 41.867188 121.523438 C 42.332031 121.28125 42.765625 121 43.171875 120.671875 C 43.578125 120.347656 43.945312 119.984375 44.28125 119.585938 C 44.617188 119.1875 44.910156 118.757812 45.160156 118.304688 C 45.410156 117.847656 45.613281 117.371094 45.769531 116.875 C 45.925781 116.378906 46.035156 115.871094 46.09375 115.355469 C 46.148438 114.835938 46.15625 114.316406 46.109375 113.800781 C 46.066406 113.28125 45.972656 112.769531 45.828125 112.269531 Z M 40.058594 120.832031 C 39.640625 120.953125 39.214844 121.03125 38.785156 121.070312 C 38.351562 121.109375 37.917969 121.101562 37.488281 121.054688 C 37.058594 121.007812 36.636719 120.917969 36.222656 120.789062 C 35.808594 120.65625 35.410156 120.488281 35.03125 120.28125 C 34.648438 120.070312 34.292969 119.828125 33.960938 119.546875 C 33.628906 119.269531 33.324219 118.960938 33.054688 118.625 C 32.78125 118.285156 32.546875 117.921875 32.34375 117.539062 C 32.144531 117.152344 31.984375 116.753906 31.859375 116.335938 C 31.785156 116.0625 31.722656 115.785156 31.675781 115.503906 C 31.613281 115.109375 31.589844 114.714844 31.597656 114.316406 C 31.609375 113.917969 31.65625 113.523438 31.734375 113.132812 C 31.816406 112.746094 31.933594 112.363281 32.082031 111.996094 C 32.234375 111.625 32.414062 111.273438 32.628906 110.9375 C 32.839844 110.601562 33.082031 110.289062 33.355469 109.996094 C 33.625 109.703125 33.917969 109.4375 34.238281 109.199219 C 34.554688 108.957031 34.894531 108.75 35.25 108.570312 C 35.605469 108.394531 35.976562 108.25 36.359375 108.136719 C 36.742188 108.027344 37.128906 107.949219 37.527344 107.910156 C 37.921875 107.867188 38.320312 107.863281 38.714844 107.894531 C 39.113281 107.925781 39.503906 107.992188 39.890625 108.09375 C 40.273438 108.195312 40.648438 108.332031 41.007812 108.5 C 41.367188 108.667969 41.710938 108.867188 42.035156 109.097656 C 42.359375 109.332031 42.660156 109.589844 42.9375 109.875 C 43.214844 110.160156 43.464844 110.46875 43.6875 110.796875 C 43.910156 111.128906 44.101562 111.476562 44.261719 111.839844 C 44.378906 112.101562 44.480469 112.367188 44.558594 112.640625 C 44.679688 113.058594 44.757812 113.484375 44.796875 113.914062 C 44.832031 114.347656 44.828125 114.777344 44.78125 115.210938 C 44.730469 115.640625 44.640625 116.0625 44.511719 116.476562 C 44.378906 116.890625 44.210938 117.289062 44.003906 117.667969 C 43.792969 118.050781 43.550781 118.40625 43.269531 118.738281 C 42.992188 119.070312 42.683594 119.371094 42.34375 119.644531 C 42.003906 119.914062 41.644531 120.148438 41.257812 120.351562 C 40.875 120.550781 40.472656 120.710938 40.058594 120.832031 Z M 40.058594 120.832031 " fill-opacity="1" fill-rule="nonzero"/><path fill="#66cc89" d="M 26.375 117.9375 C 26.160156 117.210938 26.066406 116.46875 26.085938 115.710938 C 26.105469 114.957031 26.238281 114.222656 26.488281 113.507812 C 26.738281 112.792969 27.089844 112.132812 27.546875 111.527344 C 28 110.921875 28.539062 110.402344 29.15625 109.964844 C 28.867188 109.953125 28.578125 109.953125 28.289062 109.976562 C 28.003906 109.996094 27.71875 110.03125 27.433594 110.085938 C 27.148438 110.140625 26.871094 110.210938 26.597656 110.300781 C 26.320312 110.386719 26.050781 110.492188 25.789062 110.609375 C 25.527344 110.730469 25.273438 110.863281 25.027344 111.015625 C 24.777344 111.164062 24.542969 111.328125 24.316406 111.507812 C 24.085938 111.683594 23.871094 111.875 23.667969 112.078125 C 23.464844 112.285156 23.273438 112.5 23.09375 112.726562 C 22.914062 112.953125 22.75 113.1875 22.597656 113.433594 C 22.449219 113.679688 22.3125 113.933594 22.191406 114.199219 C 22.070312 114.460938 21.96875 114.726562 21.878906 115.003906 C 21.789062 115.277344 21.71875 115.558594 21.664062 115.839844 C 21.609375 116.125 21.570312 116.410156 21.550781 116.695312 C 21.527344 116.984375 21.523438 117.273438 21.539062 117.5625 C 21.550781 117.851562 21.582031 118.136719 21.628906 118.421875 C 21.675781 118.707031 21.738281 118.988281 21.820312 119.265625 C 21.902344 119.542969 21.996094 119.8125 22.109375 120.078125 C 22.222656 120.34375 22.351562 120.601562 22.496094 120.851562 C 22.640625 121.101562 22.796875 121.34375 22.96875 121.574219 C 23.144531 121.804688 23.328125 122.027344 23.527344 122.234375 C 23.726562 122.445312 23.9375 122.640625 24.160156 122.828125 C 24.378906 123.011719 24.613281 123.179688 24.855469 123.335938 C 25.097656 123.496094 25.347656 123.636719 25.609375 123.761719 C 25.867188 123.890625 26.132812 124 26.40625 124.097656 C 26.675781 124.191406 26.953125 124.269531 27.238281 124.332031 C 27.519531 124.394531 27.804688 124.4375 28.089844 124.46875 C 28.378906 124.496094 28.664062 124.507812 28.953125 124.5 C 29.242188 124.496094 29.53125 124.472656 29.816406 124.429688 C 30.101562 124.390625 30.382812 124.332031 30.664062 124.257812 C 30.941406 124.1875 31.214844 124.09375 31.484375 123.988281 C 31.75 123.882812 32.011719 123.761719 32.265625 123.621094 C 32.519531 123.484375 32.765625 123.332031 33 123.167969 C 32.246094 123.128906 31.511719 122.976562 30.804688 122.714844 C 30.09375 122.449219 29.445312 122.082031 28.851562 121.613281 C 28.257812 121.144531 27.75 120.59375 27.324219 119.96875 C 26.902344 119.339844 26.585938 118.664062 26.375 117.9375 Z M 26.375 117.9375 " fill-opacity="1" fill-rule="nonzero"/><path fill="#cccccc" d="M 231.84375 150.703125 C 231.773438 150.449219 231.679688 150.207031 231.5625 149.972656 C 231.445312 149.738281 231.304688 149.515625 231.140625 149.308594 C 230.980469 149.101562 230.800781 148.914062 230.601562 148.742188 C 230.402344 148.570312 230.1875 148.421875 229.960938 148.292969 C 229.730469 148.164062 229.492188 148.058594 229.242188 147.976562 C 228.992188 147.894531 228.738281 147.835938 228.476562 147.804688 C 228.214844 147.773438 227.957031 147.769531 227.695312 147.789062 C 227.433594 147.808594 227.175781 147.855469 226.921875 147.925781 L 183.039062 160.203125 L 178.3125 161.523438 L 207.992188 161.523438 L 212.71875 160.203125 L 229.078125 155.628906 C 229.328125 155.554688 229.570312 155.460938 229.804688 155.34375 C 230.039062 155.222656 230.257812 155.082031 230.464844 154.921875 C 230.671875 154.757812 230.859375 154.578125 231.03125 154.378906 C 231.203125 154.179688 231.351562 153.964844 231.480469 153.738281 C 231.609375 153.507812 231.714844 153.269531 231.792969 153.019531 C 231.875 152.769531 231.933594 152.515625 231.964844 152.257812 C 231.996094 151.996094 232 151.734375 231.980469 151.472656 C 231.960938 151.210938 231.917969 150.953125 231.84375 150.703125 Z M 231.84375 150.703125 " fill-opacity="1" fill-rule="nonzero"/><path fill="#cccccc" d="M 200.800781 141.53125 C 200.730469 141.28125 200.632812 141.035156 200.515625 140.800781 C 200.398438 140.570312 200.257812 140.347656 200.09375 140.140625 C 199.933594 139.9375 199.75 139.746094 199.550781 139.578125 C 199.351562 139.40625 199.140625 139.257812 198.910156 139.128906 C 198.683594 139 198.445312 138.894531 198.195312 138.8125 C 197.945312 138.730469 197.691406 138.675781 197.429688 138.644531 C 197.167969 138.613281 196.90625 138.605469 196.648438 138.625 C 196.386719 138.644531 196.128906 138.691406 195.875 138.761719 L 130.027344 157.179688 C 129.570312 157.3125 129.144531 157.515625 128.757812 157.800781 C 128.375 158.082031 128.046875 158.421875 127.78125 158.820312 C 127.519531 159.21875 127.332031 159.648438 127.21875 160.113281 C 127.109375 160.578125 127.082031 161.050781 127.140625 161.523438 L 144.1875 161.523438 L 148.917969 160.203125 L 198.03125 146.464844 C 198.28125 146.394531 198.527344 146.296875 198.761719 146.179688 C 198.996094 146.058594 199.214844 145.917969 199.421875 145.757812 C 199.628906 145.59375 199.816406 145.414062 199.984375 145.214844 C 200.15625 145.015625 200.304688 144.800781 200.433594 144.570312 C 200.5625 144.34375 200.667969 144.101562 200.75 143.851562 C 200.832031 143.605469 200.886719 143.347656 200.917969 143.089844 C 200.949219 142.828125 200.957031 142.566406 200.9375 142.304688 C 200.914062 142.042969 200.871094 141.785156 200.800781 141.53125 Z M 200.800781 141.53125 " fill-opacity="1" fill-rule="nonzero"/><g clip-path="url(#2442b075f7)"><path fill="#3f3d56" d="M 370.316406 160.199219 L 51.066406 160.199219 C 50.761719 160.199219 50.460938 160.230469 50.164062 160.289062 C 49.863281 160.351562 49.574219 160.4375 49.292969 160.554688 C 49.015625 160.671875 48.746094 160.8125 48.496094 160.980469 C 48.242188 161.152344 48.007812 161.34375 47.792969 161.558594 C 47.578125 161.773438 47.386719 162.007812 47.21875 162.257812 C 47.050781 162.511719 46.90625 162.777344 46.792969 163.058594 C 46.675781 163.339844 46.585938 163.628906 46.527344 163.925781 C 46.46875 164.222656 46.4375 164.523438 46.4375 164.828125 L 46.4375 353.90625 C 46.4375 354.210938 46.46875 354.511719 46.527344 354.808594 C 46.585938 355.105469 46.675781 355.394531 46.792969 355.675781 C 46.90625 355.957031 47.050781 356.222656 47.21875 356.476562 C 47.386719 356.730469 47.578125 356.960938 47.792969 357.175781 C 48.007812 357.390625 48.242188 357.582031 48.496094 357.753906 C 48.746094 357.921875 49.015625 358.0625 49.292969 358.179688 C 49.574219 358.296875 49.863281 358.386719 50.164062 358.445312 C 50.460938 358.503906 50.761719 358.535156 51.066406 358.535156 L 370.316406 358.535156 C 370.621094 358.535156 370.921875 358.503906 371.21875 358.445312 C 371.515625 358.386719 371.804688 358.296875 372.085938 358.179688 C 372.367188 358.0625 372.632812 357.921875 372.886719 357.753906 C 373.136719 357.582031 373.371094 357.390625 373.585938 357.175781 C 373.800781 356.960938 373.992188 356.730469 374.160156 356.476562 C 374.332031 356.222656 374.472656 355.957031 374.589844 355.675781 C 374.707031 355.394531 374.792969 355.105469 374.851562 354.808594 C 374.914062 354.511719 374.941406 354.210938 374.941406 353.90625 L 374.941406 164.828125 C 374.941406 164.523438 374.914062 164.222656 374.851562 163.925781 C 374.792969 163.628906 374.707031 163.339844 374.589844 163.058594 C 374.472656 162.777344 374.332031 162.511719 374.160156 162.257812 C 373.992188 162.007812 373.800781 161.773438 373.585938 161.558594 C 373.371094 161.34375 373.136719 161.152344 372.886719 160.980469 C 372.632812 160.8125 372.367188 160.671875 372.085938 160.554688 C 371.804688 160.4375 371.515625 160.351562 371.21875 160.289062 C 370.921875 160.230469 370.621094 160.199219 370.316406 160.199219 Z M 373.621094 353.90625 C 373.621094 354.34375 373.539062 354.765625 373.371094 355.171875 C 373.203125 355.574219 372.960938 355.933594 372.652344 356.242188 C 372.34375 356.554688 371.984375 356.792969 371.582031 356.960938 C 371.175781 357.128906 370.753906 357.210938 370.316406 357.210938 L 51.066406 357.210938 C 50.625 357.210938 50.203125 357.128906 49.800781 356.960938 C 49.394531 356.792969 49.039062 356.554688 48.726562 356.242188 C 48.417969 355.933594 48.179688 355.574219 48.011719 355.171875 C 47.84375 354.765625 47.761719 354.34375 47.757812 353.90625 L 47.757812 164.828125 C 47.761719 164.390625 47.84375 163.96875 48.011719 163.5625 C 48.179688 163.160156 48.417969 162.800781 48.726562 162.492188 C 49.039062 162.179688 49.394531 161.941406 49.800781 161.773438 C 50.203125 161.605469 50.625 161.523438 51.066406 161.523438 L 370.316406 161.523438 C 370.753906 161.523438 371.175781 161.605469 371.582031 161.773438 C 371.984375 161.941406 372.34375 162.179688 372.652344 162.492188 C 372.960938 162.800781 373.203125 163.160156 373.371094 163.5625 C 373.539062 163.96875 373.621094 164.390625 373.621094 164.828125 Z M 373.621094 353.90625 " fill-opacity="1" fill-rule="nonzero"/></g><path fill="#66cc89" d="M 82.128906 185.984375 C 81.605469 185.984375 81.089844 185.933594 80.582031 185.832031 C 80.070312 185.730469 79.574219 185.582031 79.09375 185.382812 C 78.613281 185.183594 78.15625 184.9375 77.722656 184.648438 C 77.289062 184.359375 76.886719 184.03125 76.519531 183.660156 C 76.152344 183.292969 75.824219 182.894531 75.53125 182.460938 C 75.242188 182.027344 75 181.570312 74.800781 181.089844 C 74.601562 180.605469 74.449219 180.109375 74.347656 179.601562 C 74.246094 179.089844 74.195312 178.574219 74.195312 178.050781 C 74.195312 177.53125 74.246094 177.015625 74.347656 176.503906 C 74.449219 175.992188 74.601562 175.496094 74.800781 175.015625 C 75 174.535156 75.242188 174.078125 75.53125 173.644531 C 75.824219 173.210938 76.152344 172.8125 76.519531 172.441406 C 76.886719 172.074219 77.289062 171.746094 77.722656 171.457031 C 78.15625 171.167969 78.613281 170.921875 79.09375 170.722656 C 79.574219 170.523438 80.070312 170.371094 80.582031 170.269531 C 81.089844 170.167969 81.605469 170.117188 82.128906 170.117188 C 82.648438 170.117188 83.164062 170.167969 83.675781 170.269531 C 84.1875 170.371094 84.683594 170.523438 85.164062 170.722656 C 85.644531 170.921875 86.101562 171.167969 86.535156 171.457031 C 86.96875 171.746094 87.367188 172.074219 87.738281 172.441406 C 88.105469 172.8125 88.433594 173.210938 88.722656 173.644531 C 89.011719 174.078125 89.257812 174.535156 89.457031 175.015625 C 89.65625 175.496094 89.804688 175.992188 89.90625 176.503906 C 90.007812 177.015625 90.058594 177.53125 90.058594 178.050781 C 90.058594 178.574219 90.007812 179.089844 89.90625 179.597656 C 89.804688 180.109375 89.652344 180.605469 89.453125 181.085938 C 89.253906 181.566406 89.007812 182.023438 88.71875 182.457031 C 88.429688 182.890625 88.101562 183.289062 87.734375 183.660156 C 87.367188 184.027344 86.964844 184.355469 86.53125 184.644531 C 86.101562 184.933594 85.644531 185.179688 85.160156 185.378906 C 84.679688 185.578125 84.183594 185.730469 83.675781 185.832031 C 83.164062 185.933594 82.648438 185.984375 82.128906 185.984375 Z M 82.128906 171.441406 C 81.695312 171.441406 81.265625 171.484375 80.839844 171.566406 C 80.414062 171.652344 80 171.777344 79.597656 171.945312 C 79.199219 172.109375 78.816406 172.3125 78.457031 172.554688 C 78.09375 172.796875 77.761719 173.070312 77.453125 173.378906 C 77.148438 173.683594 76.875 174.019531 76.632812 174.378906 C 76.390625 174.738281 76.1875 175.121094 76.019531 175.523438 C 75.855469 175.921875 75.730469 176.335938 75.644531 176.761719 C 75.5625 177.1875 75.519531 177.617188 75.519531 178.050781 C 75.519531 178.484375 75.5625 178.917969 75.644531 179.34375 C 75.730469 179.765625 75.855469 180.179688 76.019531 180.582031 C 76.1875 180.984375 76.390625 181.363281 76.632812 181.726562 C 76.875 182.085938 77.148438 182.417969 77.453125 182.726562 C 77.761719 183.035156 78.09375 183.308594 78.457031 183.550781 C 78.816406 183.789062 79.199219 183.992188 79.597656 184.160156 C 80 184.324219 80.414062 184.453125 80.839844 184.535156 C 81.265625 184.621094 81.695312 184.664062 82.128906 184.664062 C 82.5625 184.664062 82.992188 184.621094 83.417969 184.535156 C 83.84375 184.453125 84.257812 184.324219 84.65625 184.160156 C 85.058594 183.992188 85.4375 183.789062 85.800781 183.550781 C 86.160156 183.308594 86.496094 183.035156 86.800781 182.726562 C 87.109375 182.417969 87.382812 182.085938 87.625 181.726562 C 87.863281 181.363281 88.070312 180.984375 88.234375 180.582031 C 88.402344 180.179688 88.527344 179.765625 88.609375 179.339844 C 88.695312 178.917969 88.738281 178.484375 88.738281 178.050781 C 88.738281 177.617188 88.695312 177.1875 88.609375 176.761719 C 88.523438 176.335938 88.398438 175.925781 88.234375 175.523438 C 88.066406 175.121094 87.863281 174.742188 87.621094 174.378906 C 87.378906 174.019531 87.105469 173.6875 86.800781 173.378906 C 86.492188 173.074219 86.160156 172.796875 85.796875 172.558594 C 85.4375 172.316406 85.058594 172.113281 84.65625 171.945312 C 84.253906 171.78125 83.84375 171.652344 83.417969 171.570312 C 82.992188 171.484375 82.5625 171.441406 82.128906 171.441406 Z M 82.128906 171.441406 " fill-opacity="1" fill-rule="nonzero"/><path fill="#66cc89" d="M 69.800781 178.050781 C 69.800781 177.296875 69.914062 176.558594 70.144531 175.835938 C 70.375 175.117188 70.710938 174.445312 71.148438 173.832031 C 71.589844 173.214844 72.113281 172.679688 72.71875 172.226562 C 73.324219 171.773438 73.984375 171.425781 74.699219 171.175781 C 74.425781 171.082031 74.148438 171.003906 73.867188 170.945312 C 73.585938 170.882812 73.300781 170.839844 73.011719 170.8125 C 72.726562 170.785156 72.4375 170.773438 72.148438 170.78125 C 71.859375 170.789062 71.574219 170.8125 71.289062 170.855469 C 71.003906 170.894531 70.71875 170.953125 70.441406 171.027344 C 70.164062 171.105469 69.890625 171.195312 69.621094 171.300781 C 69.355469 171.410156 69.09375 171.53125 68.839844 171.671875 C 68.585938 171.808594 68.34375 171.960938 68.109375 172.128906 C 67.871094 172.296875 67.648438 172.480469 67.433594 172.671875 C 67.222656 172.867188 67.019531 173.074219 66.832031 173.292969 C 66.640625 173.511719 66.46875 173.738281 66.304688 173.976562 C 66.144531 174.21875 65.996094 174.464844 65.863281 174.722656 C 65.734375 174.976562 65.617188 175.242188 65.515625 175.511719 C 65.414062 175.78125 65.332031 176.058594 65.261719 176.339844 C 65.195312 176.617188 65.144531 176.902344 65.109375 177.1875 C 65.074219 177.476562 65.058594 177.761719 65.058594 178.050781 C 65.058594 178.339844 65.074219 178.628906 65.109375 178.914062 C 65.144531 179.203125 65.195312 179.484375 65.261719 179.765625 C 65.332031 180.046875 65.414062 180.320312 65.515625 180.59375 C 65.617188 180.863281 65.734375 181.125 65.863281 181.382812 C 65.996094 181.640625 66.144531 181.886719 66.304688 182.125 C 66.46875 182.367188 66.640625 182.59375 66.832031 182.8125 C 67.019531 183.03125 67.222656 183.238281 67.433594 183.429688 C 67.648438 183.625 67.871094 183.804688 68.109375 183.972656 C 68.34375 184.140625 68.585938 184.292969 68.839844 184.433594 C 69.09375 184.570312 69.355469 184.695312 69.621094 184.800781 C 69.890625 184.910156 70.164062 185 70.441406 185.074219 C 70.71875 185.148438 71.003906 185.207031 71.289062 185.25 C 71.574219 185.289062 71.859375 185.316406 72.148438 185.320312 C 72.4375 185.328125 72.726562 185.320312 73.011719 185.292969 C 73.300781 185.265625 73.585938 185.21875 73.867188 185.160156 C 74.148438 185.097656 74.425781 185.019531 74.699219 184.925781 C 73.984375 184.679688 73.324219 184.328125 72.71875 183.875 C 72.113281 183.425781 71.589844 182.890625 71.148438 182.273438 C 70.710938 181.65625 70.375 180.988281 70.144531 180.269531 C 69.914062 179.546875 69.800781 178.808594 69.800781 178.050781 Z M 69.800781 178.050781 " fill-opacity="1" fill-rule="nonzero"/><path fill="#66cc89" d="M 114.28125 271.785156 C 113.890625 271.78125 113.503906 271.746094 113.121094 271.667969 C 112.738281 271.589844 112.367188 271.476562 112.003906 271.328125 C 111.644531 271.179688 111.300781 270.996094 110.976562 270.777344 C 110.652344 270.5625 110.351562 270.316406 110.074219 270.039062 C 109.800781 269.761719 109.554688 269.460938 109.335938 269.136719 C 109.121094 268.8125 108.9375 268.46875 108.785156 268.109375 C 108.636719 267.75 108.523438 267.375 108.445312 266.992188 C 108.371094 266.609375 108.332031 266.222656 108.332031 265.832031 L 108.332031 247.984375 C 108.332031 247.59375 108.371094 247.207031 108.445312 246.824219 C 108.523438 246.4375 108.636719 246.066406 108.785156 245.707031 C 108.933594 245.34375 109.117188 245.003906 109.335938 244.675781 C 109.550781 244.351562 109.796875 244.050781 110.074219 243.777344 C 110.351562 243.5 110.652344 243.253906 110.976562 243.035156 C 111.300781 242.820312 111.644531 242.636719 112.003906 242.484375 C 112.363281 242.335938 112.738281 242.222656 113.121094 242.148438 C 113.503906 242.070312 113.890625 242.035156 114.28125 242.035156 C 114.671875 242.035156 115.058594 242.070312 115.441406 242.148438 C 115.824219 242.222656 116.195312 242.335938 116.558594 242.484375 C 116.917969 242.636719 117.261719 242.820312 117.585938 243.035156 C 117.910156 243.253906 118.210938 243.5 118.488281 243.777344 C 118.761719 244.050781 119.007812 244.351562 119.226562 244.675781 C 119.445312 245.003906 119.625 245.34375 119.777344 245.707031 C 119.925781 246.066406 120.039062 246.4375 120.113281 246.824219 C 120.191406 247.207031 120.230469 247.59375 120.230469 247.984375 L 120.230469 265.832031 C 120.230469 266.222656 120.191406 266.609375 120.113281 266.992188 C 120.039062 267.375 119.925781 267.75 119.773438 268.109375 C 119.625 268.46875 119.441406 268.8125 119.222656 269.136719 C 119.007812 269.460938 118.761719 269.761719 118.484375 270.039062 C 118.207031 270.316406 117.910156 270.5625 117.582031 270.777344 C 117.257812 270.996094 116.917969 271.179688 116.554688 271.328125 C 116.195312 271.476562 115.824219 271.589844 115.441406 271.667969 C 115.058594 271.746094 114.671875 271.78125 114.28125 271.785156 Z M 114.28125 271.785156 " fill-opacity="1" fill-rule="nonzero"/><path fill="#66cc89" d="M 130.144531 271.785156 C 129.753906 271.78125 129.367188 271.746094 128.984375 271.667969 C 128.601562 271.589844 128.230469 271.476562 127.867188 271.328125 C 127.507812 271.179688 127.164062 270.996094 126.839844 270.777344 C 126.515625 270.5625 126.214844 270.316406 125.9375 270.039062 C 125.664062 269.761719 125.417969 269.460938 125.199219 269.136719 C 124.984375 268.8125 124.800781 268.46875 124.648438 268.109375 C 124.5 267.75 124.386719 267.375 124.308594 266.992188 C 124.234375 266.609375 124.195312 266.222656 124.195312 265.832031 L 124.195312 247.984375 C 124.195312 247.59375 124.234375 247.207031 124.308594 246.824219 C 124.386719 246.4375 124.5 246.066406 124.648438 245.707031 C 124.796875 245.34375 124.980469 245.003906 125.199219 244.675781 C 125.414062 244.351562 125.660156 244.050781 125.9375 243.777344 C 126.214844 243.5 126.515625 243.253906 126.839844 243.035156 C 127.164062 242.820312 127.507812 242.636719 127.867188 242.484375 C 128.226562 242.335938 128.601562 242.222656 128.984375 242.148438 C 129.367188 242.070312 129.753906 242.035156 130.144531 242.035156 C 130.535156 242.035156 130.921875 242.070312 131.304688 242.148438 C 131.6875 242.222656 132.058594 242.335938 132.421875 242.484375 C 132.78125 242.636719 133.125 242.820312 133.449219 243.035156 C 133.773438 243.253906 134.074219 243.5 134.351562 243.777344 C 134.625 244.050781 134.871094 244.351562 135.089844 244.675781 C 135.308594 245.003906 135.492188 245.34375 135.640625 245.707031 C 135.789062 246.066406 135.902344 246.4375 135.976562 246.824219 C 136.054688 247.207031 136.09375 247.59375 136.09375 247.984375 L 136.09375 265.832031 C 136.09375 266.222656 136.054688 266.609375 135.976562 266.992188 C 135.902344 267.375 135.789062 267.75 135.636719 268.109375 C 135.488281 268.46875 135.304688 268.8125 135.089844 269.136719 C 134.871094 269.460938 134.625 269.761719 134.347656 270.039062 C 134.070312 270.316406 133.773438 270.5625 133.445312 270.777344 C 133.121094 270.996094 132.78125 271.179688 132.417969 271.328125 C 132.058594 271.476562 131.6875 271.589844 131.304688 271.667969 C 130.921875 271.746094 130.535156 271.78125 130.144531 271.785156 Z M 130.144531 271.785156 " fill-opacity="1" fill-rule="nonzero"/><path fill="#66cc89" d="M 146.007812 271.785156 C 145.617188 271.78125 145.230469 271.746094 144.847656 271.667969 C 144.464844 271.589844 144.09375 271.476562 143.730469 271.328125 C 143.371094 271.179688 143.027344 270.996094 142.703125 270.777344 C 142.378906 270.5625 142.078125 270.316406 141.804688 270.039062 C 141.527344 269.761719 141.28125 269.460938 141.0625 269.136719 C 140.847656 268.8125 140.664062 268.46875 140.511719 268.109375 C 140.363281 267.75 140.25 267.375 140.175781 266.992188 C 140.097656 266.609375 140.058594 266.222656 140.058594 265.832031 L 140.058594 247.984375 C 140.058594 247.59375 140.097656 247.207031 140.171875 246.824219 C 140.25 246.4375 140.363281 246.066406 140.511719 245.707031 C 140.660156 245.34375 140.84375 245.003906 141.0625 244.675781 C 141.277344 244.351562 141.523438 244.050781 141.800781 243.777344 C 142.078125 243.5 142.378906 243.253906 142.703125 243.035156 C 143.027344 242.820312 143.371094 242.636719 143.730469 242.484375 C 144.089844 242.335938 144.464844 242.222656 144.847656 242.148438 C 145.230469 242.070312 145.617188 242.035156 146.007812 242.035156 C 146.398438 242.035156 146.785156 242.070312 147.167969 242.148438 C 147.550781 242.222656 147.921875 242.335938 148.285156 242.484375 C 148.644531 242.636719 148.988281 242.820312 149.3125 243.035156 C 149.636719 243.253906 149.9375 243.5 150.214844 243.777344 C 150.488281 244.050781 150.738281 244.351562 150.953125 244.675781 C 151.171875 245.003906 151.355469 245.34375 151.503906 245.707031 C 151.652344 246.066406 151.765625 246.4375 151.839844 246.824219 C 151.917969 247.207031 151.957031 247.59375 151.957031 247.984375 L 151.957031 265.832031 C 151.957031 266.222656 151.917969 266.609375 151.839844 266.992188 C 151.765625 267.375 151.652344 267.75 151.5 268.109375 C 151.351562 268.46875 151.167969 268.8125 150.953125 269.136719 C 150.734375 269.460938 150.488281 269.761719 150.210938 270.039062 C 149.9375 270.316406 149.636719 270.5625 149.3125 270.777344 C 148.984375 270.996094 148.644531 271.179688 148.28125 271.328125 C 147.921875 271.476562 147.550781 271.589844 147.167969 271.667969 C 146.785156 271.746094 146.398438 271.78125 146.007812 271.785156 Z M 146.007812 271.785156 " fill-opacity="1" fill-rule="nonzero"/><path fill="#66cc89" d="M 170.464844 271.785156 C 170.074219 271.78125 169.6875 271.746094 169.304688 271.667969 C 168.921875 271.589844 168.546875 271.476562 168.1875 271.328125 C 167.828125 271.179688 167.484375 270.996094 167.160156 270.777344 C 166.835938 270.5625 166.535156 270.316406 166.257812 270.039062 C 165.984375 269.761719 165.734375 269.460938 165.519531 269.136719 C 165.300781 268.8125 165.117188 268.46875 164.96875 268.109375 C 164.820312 267.75 164.707031 267.375 164.628906 266.992188 C 164.554688 266.609375 164.515625 266.222656 164.515625 265.832031 L 164.515625 247.984375 C 164.515625 247.59375 164.554688 247.207031 164.632812 246.824219 C 164.707031 246.441406 164.820312 246.070312 164.972656 245.710938 C 165.121094 245.347656 165.304688 245.007812 165.519531 244.683594 C 165.738281 244.359375 165.984375 244.058594 166.261719 243.785156 C 166.539062 243.507812 166.835938 243.261719 167.160156 243.046875 C 167.488281 242.828125 167.828125 242.644531 168.191406 242.496094 C 168.550781 242.347656 168.921875 242.234375 169.304688 242.160156 C 169.6875 242.082031 170.074219 242.042969 170.464844 242.042969 C 170.851562 242.042969 171.238281 242.082031 171.621094 242.160156 C 172.003906 242.234375 172.375 242.347656 172.738281 242.496094 C 173.097656 242.644531 173.441406 242.828125 173.765625 243.046875 C 174.089844 243.261719 174.390625 243.507812 174.664062 243.785156 C 174.941406 244.058594 175.1875 244.359375 175.40625 244.683594 C 175.621094 245.007812 175.804688 245.347656 175.957031 245.710938 C 176.105469 246.070312 176.21875 246.441406 176.296875 246.824219 C 176.371094 247.207031 176.410156 247.59375 176.414062 247.984375 L 176.414062 265.832031 C 176.410156 266.222656 176.375 266.609375 176.296875 266.992188 C 176.21875 267.375 176.105469 267.75 175.957031 268.109375 C 175.808594 268.46875 175.625 268.8125 175.40625 269.136719 C 175.191406 269.460938 174.945312 269.761719 174.667969 270.039062 C 174.390625 270.316406 174.089844 270.5625 173.765625 270.777344 C 173.441406 270.996094 173.097656 271.179688 172.738281 271.328125 C 172.378906 271.476562 172.007812 271.589844 171.625 271.667969 C 171.242188 271.746094 170.855469 271.78125 170.464844 271.785156 Z M 170.464844 271.785156 " fill-opacity="1" fill-rule="nonzero"/><path fill="#66cc89" d="M 186.328125 271.785156 C 185.9375 271.78125 185.550781 271.746094 185.167969 271.667969 C 184.785156 271.589844 184.410156 271.476562 184.050781 271.328125 C 183.691406 271.179688 183.347656 270.996094 183.023438 270.777344 C 182.699219 270.5625 182.398438 270.316406 182.121094 270.039062 C 181.847656 269.761719 181.601562 269.460938 181.382812 269.136719 C 181.164062 268.8125 180.980469 268.46875 180.832031 268.109375 C 180.683594 267.75 180.570312 267.375 180.492188 266.992188 C 180.417969 266.609375 180.378906 266.222656 180.378906 265.832031 L 180.378906 247.984375 C 180.378906 247.59375 180.417969 247.207031 180.492188 246.824219 C 180.570312 246.4375 180.679688 246.066406 180.832031 245.707031 C 180.980469 245.34375 181.164062 245.003906 181.378906 244.675781 C 181.597656 244.351562 181.84375 244.050781 182.121094 243.777344 C 182.398438 243.5 182.695312 243.253906 183.023438 243.035156 C 183.347656 242.820312 183.6875 242.636719 184.050781 242.484375 C 184.410156 242.335938 184.78125 242.222656 185.167969 242.148438 C 185.550781 242.070312 185.9375 242.035156 186.328125 242.035156 C 186.71875 242.035156 187.105469 242.070312 187.488281 242.148438 C 187.871094 242.222656 188.242188 242.335938 188.601562 242.484375 C 188.964844 242.636719 189.308594 242.820312 189.632812 243.035156 C 189.957031 243.253906 190.257812 243.5 190.535156 243.777344 C 190.808594 244.050781 191.054688 244.351562 191.273438 244.675781 C 191.488281 245.003906 191.671875 245.34375 191.824219 245.707031 C 191.972656 246.066406 192.085938 246.4375 192.160156 246.824219 C 192.238281 247.207031 192.277344 247.59375 192.277344 247.984375 L 192.277344 265.832031 C 192.273438 266.222656 192.238281 266.609375 192.160156 266.992188 C 192.082031 267.375 191.96875 267.75 191.820312 268.109375 C 191.671875 268.46875 191.488281 268.8125 191.269531 269.136719 C 191.054688 269.460938 190.808594 269.761719 190.53125 270.039062 C 190.253906 270.316406 189.953125 270.5625 189.628906 270.777344 C 189.304688 270.996094 188.960938 271.179688 188.601562 271.328125 C 188.242188 271.476562 187.871094 271.589844 187.488281 271.667969 C 187.105469 271.746094 186.71875 271.78125 186.328125 271.785156 Z M 186.328125 271.785156 " fill-opacity="1" fill-rule="nonzero"/><path fill="#66cc89" d="M 202.191406 271.785156 C 201.800781 271.78125 201.414062 271.746094 201.03125 271.667969 C 200.648438 271.589844 200.277344 271.476562 199.914062 271.328125 C 199.554688 271.179688 199.210938 270.996094 198.886719 270.777344 C 198.5625 270.5625 198.261719 270.316406 197.984375 270.039062 C 197.710938 269.761719 197.464844 269.460938 197.246094 269.136719 C 197.027344 268.8125 196.847656 268.46875 196.695312 268.109375 C 196.546875 267.75 196.433594 267.375 196.355469 266.992188 C 196.28125 266.609375 196.242188 266.222656 196.242188 265.832031 L 196.242188 247.984375 C 196.242188 247.59375 196.28125 247.207031 196.355469 246.824219 C 196.433594 246.4375 196.542969 246.066406 196.695312 245.707031 C 196.84375 245.34375 197.027344 245.003906 197.242188 244.675781 C 197.460938 244.351562 197.707031 244.050781 197.984375 243.777344 C 198.261719 243.5 198.558594 243.253906 198.886719 243.035156 C 199.210938 242.820312 199.554688 242.636719 199.914062 242.484375 C 200.273438 242.335938 200.648438 242.222656 201.03125 242.148438 C 201.414062 242.070312 201.800781 242.035156 202.191406 242.035156 C 202.582031 242.035156 202.96875 242.070312 203.351562 242.148438 C 203.734375 242.222656 204.105469 242.335938 204.464844 242.484375 C 204.828125 242.636719 205.171875 242.820312 205.496094 243.035156 C 205.820312 243.253906 206.121094 243.5 206.398438 243.777344 C 206.671875 244.050781 206.917969 244.351562 207.136719 244.675781 C 207.351562 245.003906 207.535156 245.34375 207.6875 245.707031 C 207.835938 246.066406 207.949219 246.4375 208.023438 246.824219 C 208.101562 247.207031 208.140625 247.59375 208.140625 247.984375 L 208.140625 265.832031 C 208.136719 266.222656 208.101562 266.609375 208.023438 266.992188 C 207.945312 267.375 207.832031 267.75 207.683594 268.109375 C 207.535156 268.46875 207.351562 268.8125 207.132812 269.136719 C 206.917969 269.460938 206.671875 269.761719 206.394531 270.039062 C 206.117188 270.316406 205.816406 270.5625 205.492188 270.777344 C 205.167969 270.996094 204.828125 271.179688 204.464844 271.328125 C 204.105469 271.476562 203.734375 271.589844 203.351562 271.667969 C 202.96875 271.746094 202.582031 271.78125 202.191406 271.785156 Z M 202.191406 271.785156 " fill-opacity="1" fill-rule="nonzero"/><path fill="#66cc89" d="M 226.644531 271.785156 C 226.257812 271.78125 225.871094 271.746094 225.484375 271.667969 C 225.101562 271.589844 224.730469 271.476562 224.371094 271.328125 C 224.011719 271.179688 223.667969 270.996094 223.34375 270.777344 C 223.019531 270.5625 222.71875 270.316406 222.441406 270.039062 C 222.164062 269.761719 221.917969 269.460938 221.703125 269.136719 C 221.484375 268.8125 221.300781 268.46875 221.152344 268.109375 C 221.003906 267.75 220.890625 267.375 220.8125 266.992188 C 220.738281 266.609375 220.699219 266.222656 220.699219 265.832031 L 220.699219 247.984375 C 220.699219 247.59375 220.734375 247.207031 220.8125 246.824219 C 220.886719 246.4375 221 246.066406 221.148438 245.707031 C 221.300781 245.34375 221.484375 245.003906 221.699219 244.675781 C 221.917969 244.351562 222.164062 244.050781 222.441406 243.777344 C 222.714844 243.5 223.015625 243.253906 223.339844 243.035156 C 223.667969 242.820312 224.007812 242.636719 224.371094 242.484375 C 224.730469 242.335938 225.101562 242.222656 225.484375 242.148438 C 225.867188 242.070312 226.253906 242.035156 226.644531 242.035156 C 227.035156 242.035156 227.421875 242.070312 227.808594 242.148438 C 228.191406 242.222656 228.5625 242.335938 228.921875 242.484375 C 229.285156 242.636719 229.625 242.820312 229.953125 243.035156 C 230.277344 243.253906 230.578125 243.5 230.851562 243.777344 C 231.128906 244.050781 231.375 244.351562 231.59375 244.675781 C 231.808594 245.003906 231.992188 245.34375 232.140625 245.707031 C 232.292969 246.066406 232.40625 246.4375 232.480469 246.824219 C 232.558594 247.207031 232.59375 247.59375 232.59375 247.984375 L 232.59375 265.832031 C 232.59375 266.222656 232.554688 266.609375 232.480469 266.992188 C 232.402344 267.375 232.289062 267.75 232.140625 268.109375 C 231.992188 268.46875 231.808594 268.8125 231.589844 269.136719 C 231.375 269.460938 231.125 269.761719 230.851562 270.039062 C 230.574219 270.316406 230.273438 270.5625 229.949219 270.777344 C 229.625 270.996094 229.28125 271.179688 228.921875 271.328125 C 228.5625 271.476562 228.1875 271.589844 227.804688 271.667969 C 227.421875 271.746094 227.035156 271.78125 226.644531 271.785156 Z M 226.644531 271.785156 " fill-opacity="1" fill-rule="nonzero"/><path fill="#66cc89" d="M 242.511719 271.785156 C 242.121094 271.78125 241.734375 271.746094 241.351562 271.667969 C 240.96875 271.589844 240.59375 271.476562 240.234375 271.328125 C 239.875 271.179688 239.53125 270.996094 239.207031 270.777344 C 238.882812 270.5625 238.582031 270.316406 238.304688 270.039062 C 238.027344 269.761719 237.78125 269.460938 237.566406 269.136719 C 237.347656 268.8125 237.164062 268.46875 237.015625 268.109375 C 236.867188 267.75 236.753906 267.375 236.675781 266.992188 C 236.601562 266.609375 236.5625 266.222656 236.5625 265.832031 L 236.5625 247.984375 C 236.5625 247.59375 236.597656 247.207031 236.675781 246.824219 C 236.75 246.4375 236.863281 246.066406 237.015625 245.707031 C 237.164062 245.34375 237.347656 245.003906 237.5625 244.675781 C 237.78125 244.351562 238.027344 244.050781 238.304688 243.777344 C 238.578125 243.5 238.878906 243.253906 239.203125 243.035156 C 239.53125 242.820312 239.871094 242.636719 240.234375 242.484375 C 240.59375 242.335938 240.964844 242.222656 241.347656 242.148438 C 241.730469 242.070312 242.121094 242.035156 242.511719 242.035156 C 242.902344 242.035156 243.289062 242.070312 243.671875 242.148438 C 244.054688 242.222656 244.425781 242.335938 244.785156 242.484375 C 245.148438 242.636719 245.488281 242.820312 245.816406 243.035156 C 246.140625 243.253906 246.441406 243.5 246.714844 243.777344 C 246.992188 244.050781 247.238281 244.351562 247.457031 244.675781 C 247.671875 245.003906 247.855469 245.34375 248.003906 245.707031 C 248.15625 246.066406 248.269531 246.4375 248.34375 246.824219 C 248.421875 247.207031 248.457031 247.59375 248.457031 247.984375 L 248.457031 265.832031 C 248.457031 266.222656 248.417969 266.609375 248.34375 266.992188 C 248.265625 267.375 248.152344 267.75 248.003906 268.109375 C 247.855469 268.46875 247.671875 268.8125 247.453125 269.136719 C 247.238281 269.460938 246.992188 269.761719 246.714844 270.039062 C 246.4375 270.316406 246.136719 270.5625 245.8125 270.777344 C 245.488281 270.996094 245.144531 271.179688 244.785156 271.328125 C 244.425781 271.476562 244.054688 271.589844 243.667969 271.667969 C 243.285156 271.746094 242.898438 271.78125 242.511719 271.785156 Z M 242.511719 271.785156 " fill-opacity="1" fill-rule="nonzero"/><path fill="#66cc89" d="M 258.375 271.785156 C 257.984375 271.78125 257.597656 271.746094 257.214844 271.667969 C 256.832031 271.589844 256.457031 271.476562 256.097656 271.328125 C 255.738281 271.179688 255.394531 270.996094 255.070312 270.777344 C 254.746094 270.5625 254.445312 270.316406 254.167969 270.039062 C 253.894531 269.761719 253.644531 269.460938 253.429688 269.136719 C 253.210938 268.8125 253.027344 268.46875 252.878906 268.109375 C 252.730469 267.75 252.617188 267.375 252.539062 266.992188 C 252.464844 266.609375 252.425781 266.222656 252.425781 265.832031 L 252.425781 247.984375 C 252.425781 247.59375 252.460938 247.207031 252.539062 246.824219 C 252.613281 246.4375 252.726562 246.066406 252.878906 245.707031 C 253.027344 245.34375 253.210938 245.003906 253.425781 244.675781 C 253.644531 244.351562 253.890625 244.050781 254.167969 243.777344 C 254.441406 243.5 254.742188 243.253906 255.066406 243.035156 C 255.394531 242.820312 255.734375 242.636719 256.097656 242.484375 C 256.457031 242.335938 256.828125 242.222656 257.210938 242.148438 C 257.597656 242.070312 257.984375 242.035156 258.375 242.035156 C 258.765625 242.035156 259.152344 242.070312 259.535156 242.148438 C 259.917969 242.222656 260.289062 242.335938 260.648438 242.484375 C 261.011719 242.636719 261.351562 242.820312 261.679688 243.035156 C 262.003906 243.253906 262.304688 243.5 262.578125 243.777344 C 262.855469 244.050781 263.101562 244.351562 263.320312 244.675781 C 263.535156 245.003906 263.71875 245.34375 263.867188 245.707031 C 264.019531 246.066406 264.132812 246.4375 264.207031 246.824219 C 264.285156 247.207031 264.320312 247.59375 264.320312 247.984375 L 264.320312 265.832031 C 264.320312 266.222656 264.28125 266.609375 264.207031 266.992188 C 264.128906 267.375 264.015625 267.75 263.867188 268.109375 C 263.71875 268.46875 263.535156 268.8125 263.316406 269.136719 C 263.101562 269.460938 262.855469 269.761719 262.578125 270.039062 C 262.300781 270.316406 262 270.5625 261.675781 270.777344 C 261.351562 270.996094 261.007812 271.179688 260.648438 271.328125 C 260.289062 271.476562 259.917969 271.589844 259.535156 271.667969 C 259.148438 271.746094 258.765625 271.78125 258.375 271.785156 Z M 258.375 271.785156 " fill-opacity="1" fill-rule="nonzero"/><path fill="#66cc89" d="M 282.828125 271.785156 C 282.4375 271.78125 282.050781 271.746094 281.667969 271.667969 C 281.285156 271.589844 280.914062 271.476562 280.554688 271.328125 C 280.191406 271.179688 279.851562 270.996094 279.527344 270.777344 C 279.203125 270.5625 278.902344 270.316406 278.625 270.039062 C 278.347656 269.761719 278.101562 269.460938 277.886719 269.136719 C 277.667969 268.8125 277.484375 268.46875 277.335938 268.109375 C 277.1875 267.75 277.074219 267.375 276.996094 266.992188 C 276.917969 266.609375 276.882812 266.222656 276.878906 265.832031 L 276.878906 247.984375 C 276.878906 247.59375 276.917969 247.207031 276.996094 246.824219 C 277.070312 246.4375 277.183594 246.066406 277.332031 245.707031 C 277.484375 245.34375 277.667969 245.003906 277.882812 244.675781 C 278.101562 244.351562 278.347656 244.050781 278.621094 243.777344 C 278.898438 243.5 279.199219 243.253906 279.523438 243.035156 C 279.847656 242.820312 280.191406 242.636719 280.554688 242.484375 C 280.914062 242.335938 281.285156 242.222656 281.667969 242.148438 C 282.050781 242.070312 282.4375 242.035156 282.828125 242.035156 C 283.21875 242.035156 283.605469 242.070312 283.988281 242.148438 C 284.371094 242.222656 284.746094 242.335938 285.105469 242.484375 C 285.464844 242.636719 285.808594 242.820312 286.132812 243.035156 C 286.460938 243.253906 286.757812 243.5 287.035156 243.777344 C 287.3125 244.050781 287.558594 244.351562 287.777344 244.675781 C 287.992188 245.003906 288.175781 245.34375 288.324219 245.707031 C 288.476562 246.066406 288.585938 246.4375 288.664062 246.824219 C 288.738281 247.207031 288.777344 247.59375 288.777344 247.984375 L 288.777344 265.832031 C 288.777344 266.222656 288.738281 266.609375 288.664062 266.992188 C 288.585938 267.375 288.472656 267.75 288.324219 268.109375 C 288.175781 268.46875 287.992188 268.8125 287.773438 269.136719 C 287.554688 269.460938 287.308594 269.761719 287.035156 270.039062 C 286.757812 270.316406 286.457031 270.5625 286.132812 270.777344 C 285.808594 270.996094 285.464844 271.179688 285.105469 271.328125 C 284.742188 271.476562 284.371094 271.589844 283.988281 271.667969 C 283.605469 271.746094 283.21875 271.78125 282.828125 271.785156 Z M 282.828125 271.785156 " fill-opacity="1" fill-rule="nonzero"/><path fill="#66cc89" d="M 298.691406 271.785156 C 298.300781 271.78125 297.914062 271.746094 297.53125 271.667969 C 297.148438 271.589844 296.777344 271.476562 296.417969 271.328125 C 296.058594 271.179688 295.714844 270.996094 295.390625 270.777344 C 295.066406 270.5625 294.765625 270.316406 294.488281 270.039062 C 294.210938 269.761719 293.964844 269.460938 293.75 269.136719 C 293.53125 268.8125 293.347656 268.46875 293.199219 268.109375 C 293.050781 267.75 292.9375 267.375 292.859375 266.992188 C 292.78125 266.609375 292.746094 266.222656 292.742188 265.832031 L 292.742188 247.984375 C 292.742188 247.59375 292.78125 247.207031 292.859375 246.824219 C 292.933594 246.4375 293.046875 246.066406 293.195312 245.707031 C 293.347656 245.34375 293.53125 245.003906 293.746094 244.675781 C 293.964844 244.351562 294.210938 244.050781 294.484375 243.777344 C 294.761719 243.5 295.0625 243.253906 295.386719 243.035156 C 295.710938 242.820312 296.054688 242.636719 296.417969 242.484375 C 296.777344 242.335938 297.148438 242.222656 297.53125 242.148438 C 297.914062 242.070312 298.300781 242.035156 298.691406 242.035156 C 299.082031 242.035156 299.46875 242.070312 299.851562 242.148438 C 300.238281 242.222656 300.609375 242.335938 300.96875 242.484375 C 301.328125 242.636719 301.671875 242.820312 301.996094 243.035156 C 302.324219 243.253906 302.621094 243.5 302.898438 243.777344 C 303.175781 244.050781 303.421875 244.351562 303.640625 244.675781 C 303.855469 245.003906 304.039062 245.34375 304.1875 245.707031 C 304.339844 246.066406 304.449219 246.4375 304.527344 246.824219 C 304.601562 247.207031 304.640625 247.59375 304.640625 247.984375 L 304.640625 265.832031 C 304.640625 266.222656 304.601562 266.609375 304.527344 266.992188 C 304.449219 267.375 304.335938 267.75 304.1875 268.109375 C 304.039062 268.46875 303.855469 268.8125 303.636719 269.136719 C 303.417969 269.460938 303.171875 269.761719 302.898438 270.039062 C 302.621094 270.316406 302.320312 270.5625 301.996094 270.777344 C 301.671875 270.996094 301.328125 271.179688 300.96875 271.328125 C 300.609375 271.476562 300.234375 271.589844 299.851562 271.667969 C 299.46875 271.746094 299.082031 271.78125 298.691406 271.785156 Z M 298.691406 271.785156 " fill-opacity="1" fill-rule="nonzero"/><path fill="#66cc89" d="M 314.554688 271.785156 C 314.164062 271.78125 313.777344 271.746094 313.394531 271.667969 C 313.011719 271.589844 312.640625 271.476562 312.28125 271.328125 C 311.921875 271.179688 311.578125 270.996094 311.253906 270.777344 C 310.929688 270.5625 310.628906 270.316406 310.351562 270.039062 C 310.074219 269.761719 309.828125 269.460938 309.613281 269.136719 C 309.394531 268.8125 309.210938 268.46875 309.0625 268.109375 C 308.914062 267.75 308.800781 267.375 308.722656 266.992188 C 308.644531 266.609375 308.609375 266.222656 308.609375 265.832031 L 308.609375 247.984375 C 308.605469 247.59375 308.644531 247.207031 308.722656 246.824219 C 308.796875 246.4375 308.910156 246.066406 309.058594 245.707031 C 309.210938 245.34375 309.394531 245.003906 309.609375 244.675781 C 309.828125 244.351562 310.074219 244.050781 310.351562 243.777344 C 310.625 243.5 310.925781 243.253906 311.25 243.035156 C 311.574219 242.820312 311.917969 242.636719 312.28125 242.484375 C 312.640625 242.335938 313.011719 242.222656 313.394531 242.148438 C 313.777344 242.070312 314.164062 242.035156 314.554688 242.035156 C 314.945312 242.035156 315.332031 242.070312 315.714844 242.148438 C 316.101562 242.222656 316.472656 242.335938 316.832031 242.484375 C 317.195312 242.636719 317.535156 242.820312 317.859375 243.035156 C 318.1875 243.253906 318.488281 243.5 318.761719 243.777344 C 319.039062 244.050781 319.285156 244.351562 319.503906 244.675781 C 319.71875 245.003906 319.902344 245.34375 320.050781 245.707031 C 320.203125 246.066406 320.3125 246.4375 320.390625 246.824219 C 320.46875 247.207031 320.503906 247.59375 320.503906 247.984375 L 320.503906 265.832031 C 320.503906 266.222656 320.464844 266.609375 320.390625 266.992188 C 320.3125 267.375 320.199219 267.75 320.050781 268.109375 C 319.902344 268.46875 319.71875 268.8125 319.5 269.136719 C 319.285156 269.460938 319.035156 269.761719 318.761719 270.039062 C 318.484375 270.316406 318.183594 270.5625 317.859375 270.777344 C 317.535156 270.996094 317.191406 271.179688 316.832031 271.328125 C 316.472656 271.476562 316.097656 271.589844 315.714844 271.667969 C 315.332031 271.746094 314.945312 271.78125 314.554688 271.785156 Z M 314.554688 271.785156 " fill-opacity="1" fill-rule="nonzero"/><path fill="#e6e6e6" d="M 154.613281 338.003906 L 69.054688 338.003906 C 68.792969 338.003906 68.53125 337.980469 68.273438 337.929688 C 68.019531 337.875 67.769531 337.800781 67.523438 337.699219 C 67.28125 337.601562 67.050781 337.476562 66.835938 337.332031 C 66.617188 337.183594 66.414062 337.019531 66.226562 336.832031 C 66.042969 336.648438 65.878906 336.445312 65.730469 336.226562 C 65.585938 336.011719 65.460938 335.78125 65.363281 335.535156 C 65.261719 335.292969 65.1875 335.042969 65.132812 334.785156 C 65.082031 334.53125 65.058594 334.269531 65.058594 334.007812 C 65.058594 333.746094 65.082031 333.484375 65.132812 333.226562 C 65.1875 332.96875 65.261719 332.71875 65.363281 332.476562 C 65.460938 332.234375 65.585938 332.003906 65.730469 331.785156 C 65.878906 331.566406 66.042969 331.367188 66.226562 331.179688 C 66.414062 330.996094 66.617188 330.828125 66.835938 330.683594 C 67.050781 330.535156 67.28125 330.414062 67.523438 330.3125 C 67.769531 330.210938 68.019531 330.136719 68.273438 330.085938 C 68.53125 330.035156 68.792969 330.007812 69.054688 330.007812 L 154.613281 330.007812 C 154.875 330.007812 155.132812 330.035156 155.390625 330.085938 C 155.648438 330.136719 155.898438 330.210938 156.140625 330.3125 C 156.382812 330.414062 156.613281 330.535156 156.832031 330.683594 C 157.050781 330.828125 157.253906 330.996094 157.4375 331.179688 C 157.625 331.367188 157.789062 331.566406 157.933594 331.785156 C 158.082031 332.003906 158.203125 332.234375 158.304688 332.476562 C 158.40625 332.71875 158.480469 332.96875 158.53125 333.226562 C 158.582031 333.484375 158.609375 333.746094 158.609375 334.007812 C 158.609375 334.269531 158.582031 334.53125 158.53125 334.785156 C 158.480469 335.042969 158.40625 335.292969 158.304688 335.535156 C 158.203125 335.78125 158.082031 336.007812 157.933594 336.226562 C 157.789062 336.445312 157.625 336.648438 157.4375 336.832031 C 157.253906 337.019531 157.050781 337.183594 156.832031 337.332031 C 156.613281 337.476562 156.382812 337.601562 156.140625 337.699219 C 155.898438 337.800781 155.648438 337.875 155.390625 337.929688 C 155.132812 337.980469 154.875 338.003906 154.613281 338.003906 Z M 154.613281 338.003906 " fill-opacity="1" fill-rule="nonzero"/><path fill="#e6e6e6" d="M 127.179688 320.816406 L 96.484375 320.816406 C 96.222656 320.816406 95.964844 320.789062 95.707031 320.738281 C 95.449219 320.6875 95.199219 320.613281 94.957031 320.511719 C 94.714844 320.410156 94.484375 320.289062 94.265625 320.140625 C 94.046875 319.996094 93.84375 319.832031 93.660156 319.644531 C 93.472656 319.460938 93.308594 319.257812 93.160156 319.039062 C 93.015625 318.820312 92.894531 318.589844 92.792969 318.347656 C 92.691406 318.105469 92.617188 317.855469 92.566406 317.597656 C 92.515625 317.339844 92.488281 317.082031 92.488281 316.816406 C 92.488281 316.554688 92.515625 316.296875 92.566406 316.039062 C 92.617188 315.78125 92.691406 315.53125 92.792969 315.289062 C 92.894531 315.046875 93.015625 314.816406 93.160156 314.597656 C 93.308594 314.378906 93.472656 314.175781 93.660156 313.992188 C 93.84375 313.804688 94.046875 313.640625 94.265625 313.492188 C 94.484375 313.347656 94.714844 313.226562 94.957031 313.125 C 95.199219 313.023438 95.449219 312.949219 95.707031 312.898438 C 95.964844 312.84375 96.222656 312.820312 96.484375 312.820312 L 127.179688 312.820312 C 127.445312 312.820312 127.703125 312.84375 127.960938 312.898438 C 128.21875 312.949219 128.46875 313.023438 128.710938 313.125 C 128.953125 313.226562 129.183594 313.347656 129.402344 313.492188 C 129.621094 313.640625 129.820312 313.804688 130.007812 313.992188 C 130.191406 314.175781 130.359375 314.378906 130.503906 314.597656 C 130.652344 314.816406 130.773438 315.046875 130.875 315.289062 C 130.976562 315.53125 131.050781 315.78125 131.101562 316.039062 C 131.152344 316.296875 131.179688 316.554688 131.179688 316.816406 C 131.179688 317.082031 131.152344 317.339844 131.101562 317.597656 C 131.050781 317.855469 130.976562 318.105469 130.875 318.347656 C 130.773438 318.589844 130.652344 318.820312 130.503906 319.039062 C 130.359375 319.257812 130.191406 319.460938 130.007812 319.644531 C 129.820312 319.832031 129.621094 319.996094 129.402344 320.140625 C 129.183594 320.289062 128.953125 320.410156 128.710938 320.511719 C 128.46875 320.613281 128.21875 320.6875 127.960938 320.738281 C 127.703125 320.789062 127.445312 320.816406 127.179688 320.816406 Z M 127.179688 320.816406 " fill-opacity="1" fill-rule="nonzero"/><path fill="#3f3d56" d="M 47.523438 199.722656 L 373.382812 199.722656 L 373.382812 201.042969 L 47.523438 201.042969 Z M 47.523438 199.722656 " fill-opacity="1" fill-rule="nonzero"/><path fill="#6acd8c" d="M 130.21875 268.085938 C 130.214844 268.011719 130.21875 267.9375 130.214844 267.863281 C 130.691406 267.261719 130.585938 267.53125 130.21875 268.085938 " fill-opacity="1" fill-rule="nonzero"/><path fill="#6acd8c" d="M 159.964844 249.015625 C 160.039062 249.066406 160.113281 249.125 160.195312 249.203125 C 160.09375 249.152344 160.019531 249.089844 159.964844 249.015625 " fill-opacity="1" fill-rule="nonzero"/><path fill="#6acd8c" d="M 72.691406 304.03125 C 71.203125 303.976562 69.460938 306.207031 71.628906 302.976562 C 63.554688 303.878906 69.632812 292.328125 73.109375 286.703125 C 71.648438 288.792969 69.289062 292.09375 65.683594 296.988281 C 69.859375 276.996094 113.335938 232.621094 162.40625 188.171875 C 112.195312 130.492188 68.472656 74.480469 68.667969 72.019531 C 68.667969 72.019531 60.363281 57.445312 71.28125 64.175781 C 71.910156 63.140625 64.316406 59.46875 65.621094 59.828125 C 68.605469 58.914062 60.898438 55.5625 62.480469 51.738281 C 65.378906 46.761719 71.25 61.160156 71.070312 54.09375 C 71 51.511719 73.828125 48.738281 75.238281 51.292969 C 74.507812 45.957031 76.238281 50.191406 78.109375 52.589844 C 77.292969 47.199219 91.09375 57.898438 96.871094 64.742188 C 97.855469 62.980469 94.351562 61.566406 97.097656 62.347656 C 97.914062 64.527344 97.507812 62.253906 97.378906 61.515625 C 98.453125 61.882812 98.757812 63.566406 98.824219 64.886719 C 99.988281 64.074219 100.046875 63.804688 100.273438 65.589844 C 98.171875 63.929688 102.035156 68.960938 102.300781 66.667969 C 105.707031 73.429688 109.402344 76.367188 101.972656 69.109375 C 104.191406 75.460938 110.730469 75.585938 111.15625 77.9375 C 115.375 83.140625 113.144531 79.523438 117.496094 81.941406 C 112.578125 80.558594 118.101562 84.171875 117.070312 82.808594 C 115.921875 80.871094 119.355469 86.210938 119.832031 87.035156 C 124.585938 87.164062 142.613281 112.007812 153.921875 118.667969 C 152.664062 118.761719 158.453125 125.25 164.203125 131.203125 C 164.277344 131.253906 164.359375 131.3125 164.449219 131.386719 C 164.441406 131.40625 164.4375 131.417969 164.429688 131.4375 C 169.171875 136.339844 173.820312 140.816406 174.382812 140.96875 C 171.074219 141.554688 175.578125 141.140625 173.839844 143.160156 C 176.96875 140.703125 184.546875 155.425781 186.320312 155.871094 C 184.828125 153.828125 186.867188 155.648438 187.4375 156.574219 C 188.203125 158.601562 190.074219 160.273438 192.0625 161.851562 C 249.976562 111.40625 306.414062 67.355469 308.886719 67.546875 C 308.886719 67.546875 323.460938 59.246094 316.730469 70.160156 C 317.761719 70.792969 321.433594 63.199219 321.078125 64.503906 C 321.992188 67.484375 325.34375 59.78125 329.167969 61.359375 C 334.144531 64.261719 328.214844 68.46875 335.285156 68.289062 C 337.871094 68.21875 332.167969 72.710938 329.613281 74.117188 C 334.949219 73.386719 330.714844 75.121094 328.316406 76.992188 C 333.707031 76.171875 323.011719 89.972656 316.160156 95.75 C 317.925781 96.734375 319.335938 93.230469 318.558594 95.976562 C 316.378906 96.789062 318.652344 96.386719 319.390625 96.253906 C 319.023438 97.328125 317.339844 97.636719 316.019531 97.699219 C 316.832031 98.867188 317.101562 98.921875 315.316406 99.152344 C 316.976562 97.046875 311.945312 100.914062 314.238281 101.175781 C 307.476562 104.582031 304.539062 108.277344 311.792969 100.851562 C 305.441406 103.070312 305.320312 109.609375 302.96875 110.03125 C 297.765625 114.25 301.382812 112.019531 298.964844 116.371094 C 300.347656 111.453125 296.730469 116.976562 298.097656 115.945312 C 295.808594 118.105469 293.320312 120.515625 290.671875 123.113281 C 290.601562 123.386719 290.351562 123.632812 290.191406 123.585938 C 290.015625 123.757812 289.839844 123.933594 289.660156 124.109375 C 289.53125 124.449219 289.269531 124.699219 288.894531 124.863281 C 288.761719 124.996094 288.628906 125.125 288.496094 125.257812 C 288.425781 125.457031 288.222656 125.664062 287.960938 125.785156 C 283.257812 130.433594 278.132812 135.578125 272.761719 140.929688 C 272.777344 140.921875 272.789062 140.917969 272.808594 140.914062 C 272.707031 141.425781 272.449219 141.792969 271.832031 141.859375 C 271.996094 141.785156 272.09375 141.652344 272.179688 141.507812 C 268.75 144.921875 265.234375 148.410156 261.667969 151.902344 C 261.546875 152.085938 261.410156 152.261719 261.195312 152.363281 C 248.980469 164.320312 236.265625 176.273438 225.027344 185.191406 C 227.066406 183.695312 225.246094 185.734375 224.324219 186.308594 C 222.484375 187 220.9375 188.601562 219.492188 190.371094 C 219.617188 190.503906 219.75 190.628906 219.886719 190.738281 C 219.71875 190.605469 219.574219 190.5 219.453125 190.421875 C 219.398438 190.488281 219.34375 190.554688 219.292969 190.621094 C 219.4375 190.742188 219.636719 190.890625 219.898438 191.058594 C 219.546875 191.386719 219.9375 192.585938 220.074219 191.539062 C 220.234375 193.28125 219.144531 190.84375 218.675781 191.628906 C 220.257812 194.023438 220.175781 190.476562 220.746094 192.675781 C 221.628906 191.554688 221.179688 194.183594 222.683594 194.167969 C 219.421875 190.867188 220.234375 187.570312 221.972656 192.257812 C 222.574219 188.335938 224.664062 196.691406 225.863281 195.398438 C 222.90625 192.601562 226.761719 193.667969 226.695312 196.53125 C 227.351562 195.277344 229.789062 197.820312 227.953125 196.738281 C 226.539062 199.109375 229.875 196.265625 228.050781 198.785156 C 229.601562 201.105469 225.363281 195.429688 226.898438 197.480469 C 223.40625 196.726562 231.710938 202.429688 228.320312 201.15625 C 228.46875 201.8125 228.492188 203.027344 229.363281 203.398438 C 229.089844 202.679688 228.851562 201.023438 230.527344 201.710938 C 230.011719 201.140625 228.375 199.164062 230.421875 199.503906 C 228.292969 200.445312 232.570312 201.605469 230.867188 202.355469 C 228.125 201.289062 233.597656 204.3125 234.363281 206.382812 C 232.1875 206.632812 236.292969 208.632812 234.234375 206.847656 C 235.527344 205.460938 235.179688 208.503906 235.441406 208.925781 C 239.40625 212.980469 235.46875 206.460938 238.976562 210.914062 C 238.621094 208.929688 241.453125 212.289062 239.828125 212.195312 C 239.957031 212.308594 246.414062 216.695312 244.125 216.042969 C 244.402344 217.839844 244.78125 217.160156 246.046875 216.859375 C 245.382812 217.628906 249.042969 221.714844 250.152344 220.921875 C 249.003906 222.554688 254.394531 221.730469 252.171875 222.441406 C 253.550781 224.214844 251.265625 221.800781 252.144531 224.152344 C 253.300781 222.941406 252.226562 224.78125 253.800781 225.414062 C 255.203125 222.949219 257.472656 226.238281 257.441406 226.207031 C 256.988281 227.648438 254.855469 224.585938 256.265625 227.140625 C 256.785156 227.335938 256.347656 226.636719 256.863281 226.832031 C 257.023438 229.007812 259.558594 229.328125 261.058594 231.070312 C 261.066406 231.070312 261.070312 231.066406 261.078125 231.066406 C 261.085938 231.078125 261.089844 231.101562 261.097656 231.117188 C 261.742188 231.882812 262.183594 232.917969 262.144531 234.492188 C 263.867188 233.882812 261.285156 232.699219 262.890625 232.304688 C 262.042969 232.683594 263.765625 234.03125 263.230469 232.617188 C 263.75 232.492188 263.484375 233.246094 264.046875 233.074219 C 263.140625 234.148438 267.804688 234.859375 265.019531 235.246094 C 259.464844 232.835938 280.503906 246.441406 280.816406 250.339844 C 285.132812 249.796875 292.238281 257.207031 298.703125 262.765625 C 297.839844 262.074219 293.816406 259.820312 296.351562 261.53125 C 295.773438 261.925781 295.363281 260.5625 295.664062 262.199219 C 297.082031 261.511719 295.976562 263.746094 297.308594 263.949219 C 296.519531 261.152344 298.8125 264.160156 300.929688 266.496094 C 300.230469 264.179688 306.410156 268.234375 304.847656 268.847656 C 304.84375 270.253906 308.652344 270.230469 305.867188 269.375 C 304.984375 267.148438 306.875 270.285156 307.691406 269.050781 C 320.4375 279.234375 296.050781 265.296875 293.082031 261.949219 C 292.390625 262.007812 290.417969 261.425781 290.097656 261.457031 C 290.34375 262.179688 291.726562 261.488281 290.832031 262.359375 C 289.34375 261.789062 290.414062 258.605469 289.054688 259.320312 C 288.398438 261.515625 283.597656 254.414062 284.058594 257.996094 C 284.046875 258.148438 279.972656 251.375 281.367188 255.15625 C 279.421875 253.382812 281.441406 256.285156 279.769531 254.910156 C 279.390625 256.121094 278.351562 253.871094 278.492188 253.238281 C 277.570312 254.339844 277.269531 253.535156 277.457031 252.324219 C 276.996094 251.667969 272.042969 251.191406 274.273438 250.546875 C 273.550781 250.132812 272.488281 249.585938 271.851562 249.507812 C 273.980469 251.882812 269.113281 246.921875 269.148438 246.140625 C 268.605469 248.933594 268.523438 244.507812 268.257812 246.628906 C 266.949219 246.351562 265.605469 242.847656 264.453125 244.324219 C 264.515625 244.972656 265.039062 244.855469 265.074219 244.320312 C 266.738281 247.019531 264.875 244.386719 264.714844 245.421875 C 271.363281 250.324219 263.472656 247.6875 271.496094 253.429688 C 272.304688 252.96875 270.265625 251.355469 269.226562 250.667969 C 271.574219 250.636719 273.507812 252.261719 274.933594 253.683594 C 275.128906 253.746094 275.316406 253.90625 275.464844 254.222656 C 276.640625 255.4375 277.386719 256.273438 277.628906 255.304688 C 278.089844 256.132812 281.136719 257.824219 278.628906 257.140625 C 278.503906 257.886719 279.199219 259.441406 279.195312 257.894531 C 280.011719 257.992188 279.523438 258.464844 279.816406 259.121094 C 281.242188 255.113281 301.464844 275.953125 306.679688 272.566406 C 309.910156 274.484375 306.714844 276.335938 309.441406 277.144531 C 309.042969 277.300781 305.640625 276.640625 307.726562 277.144531 C 307.957031 279.089844 309.402344 276.96875 309.460938 279.175781 C 315.332031 279.371094 311.8125 279.527344 313.8125 281.703125 C 313.796875 282.582031 312.453125 281.402344 313.796875 282.484375 C 314.550781 280.902344 314.964844 283.929688 317.28125 283.492188 C 318.050781 285.757812 311.246094 280.996094 315.851562 284.28125 C 313.140625 283.53125 316.410156 285.378906 317.222656 284.90625 C 318.402344 287.519531 323.335938 285.0625 322.917969 289.40625 C 323.445312 288.613281 323.601562 289.40625 324.367188 289.523438 C 324.738281 291.460938 325.125 289.175781 324.058594 288.785156 C 325.804688 288.804688 330.539062 293.492188 327.621094 291.566406 C 326.625 291.890625 326.097656 292.886719 327.351562 292.542969 C 327.304688 293.59375 324.753906 292.070312 326.1875 291.761719 C 322.042969 292.089844 310.859375 286.558594 317.863281 290.011719 C 317.070312 292.554688 312.820312 286.347656 312.191406 285.777344 C 313.65625 288.699219 310.214844 284.277344 310.757812 286.5625 C 309.960938 283.765625 310.132812 285.140625 307.519531 284.386719 C 314.097656 291.328125 311.1875 287.648438 322.417969 295.40625 C 322.222656 296.628906 320.660156 297.042969 321.027344 295.59375 C 318.855469 293.71875 320.90625 297.140625 316.664062 294.402344 C 318.699219 296.859375 315.472656 294.128906 313.625 293.828125 C 312.78125 297.050781 309.460938 304.730469 306.292969 299.628906 C 302.546875 301.03125 292.125 290.652344 292.078125 293.5625 C 294.285156 297.871094 324.367188 315.082031 319.328125 317.882812 C 314.144531 310.644531 312.796875 316.769531 305.175781 308.1875 C 305.121094 309.675781 307.351562 311.417969 304.121094 309.25 C 305.023438 317.324219 293.472656 311.246094 287.847656 307.769531 C 289.9375 309.230469 293.238281 311.589844 298.132812 315.195312 C 278.332031 311.058594 234.613281 268.382812 190.589844 219.902344 C 190.234375 220.15625 189.609375 220.476562 188.632812 220.839844 C 192.554688 221.4375 184.199219 223.527344 185.492188 224.726562 C 188.289062 221.769531 187.222656 225.625 184.359375 225.558594 C 185.613281 226.214844 183.070312 228.652344 184.152344 226.816406 C 181.78125 225.402344 184.625 228.738281 182.105469 226.914062 C 179.785156 228.464844 185.460938 224.226562 183.410156 225.761719 C 184.164062 222.273438 178.460938 230.578125 179.734375 227.183594 C 175.425781 228.304688 180.027344 227.109375 179.179688 229.390625 C 179.75 228.875 181.730469 227.238281 181.386719 229.285156 C 180.445312 227.160156 179.285156 231.429688 178.535156 229.730469 C 179.601562 226.988281 176.578125 232.460938 174.507812 233.226562 C 174.257812 231.050781 172.257812 235.152344 174.039062 233.097656 C 175.429688 234.390625 172.386719 234.039062 171.964844 234.304688 C 167.90625 238.269531 174.429688 234.332031 169.976562 237.839844 C 171.960938 237.480469 168.601562 240.316406 168.695312 238.691406 C 168.578125 238.816406 164.191406 245.277344 164.84375 242.984375 C 163.046875 243.261719 163.726562 243.644531 164.027344 244.90625 C 163.257812 244.246094 159.171875 247.90625 159.964844 249.015625 C 158.335938 247.867188 159.160156 253.257812 158.449219 251.035156 C 156.671875 252.410156 159.085938 250.128906 156.734375 251.003906 C 157.945312 252.164062 156.109375 251.085938 155.476562 252.660156 C 157.9375 254.0625 154.648438 256.332031 154.679688 256.300781 C 153.242188 255.847656 156.300781 253.714844 153.746094 255.128906 C 153.046875 255.75 151.964844 258.238281 149.792969 259.773438 C 149.8125 259.820312 149.820312 259.875 149.820312 259.9375 C 149.742188 260 149.597656 260.011719 149.433594 260.015625 C 148.585938 260.542969 147.585938 260.921875 146.394531 261.003906 C 147.003906 262.726562 148.183594 260.144531 148.578125 261.75 C 148.203125 260.902344 146.855469 262.621094 148.273438 262.089844 C 148.394531 262.609375 147.640625 262.34375 147.8125 262.910156 C 146.738281 262 146.027344 266.664062 145.640625 263.878906 C 148.050781 258.324219 134.445312 279.363281 130.546875 279.675781 C 131.085938 283.992188 123.675781 291.09375 118.117188 297.558594 C 118.808594 296.695312 121.0625 292.671875 119.351562 295.207031 C 118.957031 294.628906 120.320312 294.214844 118.683594 294.519531 C 119.375 295.941406 117.136719 294.832031 116.933594 296.164062 C 119.730469 295.375 116.722656 297.667969 114.386719 299.785156 C 116.703125 299.085938 112.648438 305.261719 112.035156 303.703125 C 110.628906 303.699219 110.652344 307.507812 111.507812 304.71875 C 113.738281 303.839844 104.546875 305.566406 103.738281 308.296875 C 103.582031 307.894531 103.914062 308.257812 101.707031 308.316406 C 101.511719 314.1875 101.351562 310.664062 99.175781 312.664062 C 98.296875 312.648438 99.476562 311.308594 98.398438 312.652344 C 99.976562 313.40625 96.953125 313.820312 97.386719 316.132812 C 95.121094 316.90625 99.886719 310.097656 96.601562 314.707031 C 97.351562 311.996094 95.5 315.261719 95.976562 316.078125 C 93.359375 317.253906 95.820312 322.191406 91.472656 321.769531 C 92.265625 322.296875 91.472656 322.453125 91.359375 323.21875 C 89.417969 323.589844 91.703125 323.976562 92.09375 322.914062 C 92.074219 324.65625 87.386719 329.390625 89.3125 326.476562 C 88.992188 325.476562 87.996094 324.953125 88.335938 326.207031 C 87.289062 326.15625 88.8125 323.609375 89.117188 325.039062 C 88.792969 320.894531 94.324219 309.714844 90.871094 316.71875 C 88.324219 315.925781 94.53125 311.675781 95.101562 311.046875 C 92.183594 312.507812 96.601562 309.066406 94.320312 309.609375 C 97.117188 308.816406 95.738281 308.984375 96.496094 306.375 C 89.550781 312.949219 93.230469 310.042969 85.472656 321.269531 C 84.25 321.074219 83.839844 319.511719 85.285156 319.878906 C 87.160156 317.707031 83.738281 319.757812 86.476562 315.519531 C 84.019531 317.554688 86.75 314.324219 87.050781 312.480469 C 83.828125 311.636719 79.078125 309.984375 84.183594 306.816406 C 88.085938 302.796875 84.792969 299.398438 81.882812 299.351562 C 77.574219 301.558594 74.921875 316.1875 72.121094 311.152344 C 79.363281 305.96875 64.109375 311.652344 72.691406 304.03125 " fill-opacity="1" fill-rule="nonzero"/><path fill="#6acd8c" d="M 142.039062 108.09375 C 142.550781 108.195312 142.917969 108.453125 142.988281 109.066406 C 142.78125 108.617188 142.136719 108.679688 142.039062 108.09375 " fill-opacity="1" fill-rule="nonzero"/><path fill="#6acd8c" d="M 250.152344 220.921875 C 250.203125 220.851562 250.261719 220.773438 250.34375 220.691406 C 250.292969 220.792969 250.230469 220.871094 250.152344 220.921875 " fill-opacity="1" fill-rule="nonzero"/><path fill="#6acd8c" d="M 269.226562 250.667969 C 269.152344 250.667969 269.082031 250.664062 269.003906 250.671875 C 268.402344 250.195312 268.671875 250.300781 269.226562 250.667969 " fill-opacity="1" fill-rule="nonzero"/></svg>